<?xml version="1.0" encoding="utf-8"?>
<!-- Generator: Adobe Illustrator 26.0.3, SVG Export Plug-In . SVG Version: 6.00 Build 0)  -->
<svg version="1.1" id="Layer_1" xmlns="http://www.w3.org/2000/svg" xmlns:xlink="http://www.w3.org/1999/xlink" x="0px" y="0px"
	 viewBox="0 0 482.74 193.64" style="enable-background:new 0 0 482.74 193.64;" xml:space="preserve">
<style type="text/css">
	.st0{fill:#1D3367;}
	.st1{fill:#FFFFFF;}
	.st2{fill:#CAE357;}
</style>
<g>
	<g>
		<path class="st1" d="M409.97,144.93c22.35,0,48.45-12.53,48.45-45.87s-26.1-46-48.45-46c-22.48,0-48.32,12.66-48.32,46
			S387.49,144.93,409.97,144.93z M409.97,73.61c10.85,0,23.64,7.11,23.64,25.45s-12.79,25.32-23.64,25.32
			c-10.98,0-23.64-6.98-23.64-25.32S398.99,73.61,409.97,73.61z"/>
		<polygon class="st1" points="277.17,54.49 202.24,54.49 202.24,74 227.43,74 227.43,143.5 252.11,143.5 252.11,74 277.17,74 		"/>
		<polygon class="st1" points="359.71,54.49 284.78,54.49 284.78,74 309.97,74 309.97,143.5 334.65,143.5 334.65,74 359.71,74 		"/>
	</g>
	<circle class="st2" cx="97.37" cy="96.82" r="73.05"/>
	<g>
		<path class="st0" d="M135.53,96.99c-4.9,0-8.83,4-8.76,8.88c0.02,2.03,0.73,3.89,1.91,5.36l-3.57,3.34h-16.15l19.99-19.12
			c0.18-0.17,0.29-0.42,0.29-0.67V79.27c2.75-0.45,4.82-2.87,4.74-5.74c-0.08-3.01-2.65-5.51-5.66-5.51c-3.17,0-5.71,2.59-5.67,5.75
			c0.02,2.79,2.07,5.09,4.74,5.51v15.11l-11.38,10.89v-8.93c4.9-0.48,8.68-4.66,8.54-9.69c-0.14-5.03-4.43-9.21-9.47-9.21
			c-0.63,0-1.24,0.07-1.84,0.18V66.87c3.85-0.47,6.79-3.79,6.68-7.77c-0.11-4.04-3.56-7.4-7.61-7.4c-4.25,0-7.67,3.48-7.62,7.72
			c0.03,3.86,2.95,7.02,6.68,7.45V78.2c-3.17,1.34-5.45,4.35-5.75,7.92l-8.4,6.39V74.11c3.03-0.46,5.33-3.11,5.24-6.27
			c-0.09-3.28-2.89-6-6.16-6c-3.45,0-6.22,2.82-6.17,6.26c0.02,3.07,2.3,5.58,5.24,6.01v24.89l-3.86-6.1V79.35
			c0-0.21-0.07-0.41-0.2-0.57l-8.55-10.92c2.52-2.05,4.11-5.2,4.01-8.71C86.62,53.39,81.7,48.6,75.94,48.6
			c-6.06,0-10.93,4.96-10.85,11c0.05,5.95,4.9,10.73,10.85,10.7c0.05,0,0.1,0,0.15,0c1.87-0.03,3.63-0.53,5.15-1.38l8.42,10.76v13.5
			c0,0.18,0.05,0.35,0.14,0.5l5.57,8.81v13.84c-1.88-1.91-5.68-5.52-13.34-12.58c0-0.03,0.01-0.06,0.01-0.09V90.6
			c2.75-0.45,4.82-2.87,4.74-5.74c-0.08-3.01-2.65-5.51-5.66-5.51c-3.17,0-5.71,2.59-5.67,5.75c0.02,2.79,2.07,5.09,4.74,5.51v12.62
			h-7.52l-4.69-4.52c1.78-1.84,2.86-4.36,2.78-7.13c-0.14-5.23-4.61-9.57-9.83-9.57c-5.5,0-9.92,4.5-9.85,9.98
			c0.04,5.4,4.45,9.74,9.84,9.71c0.05,0,0.09,0,0.14,0c2.05-0.03,3.95-0.68,5.51-1.78l5.09,4.9c0.17,0.17,0.4,0.26,0.64,0.26h8.46
			c5.26,4.86,13.42,12.49,14.62,13.9v33.48c0,0.51,0.42,0.93,0.93,0.93c0.51,0,0.93-0.42,0.93-0.93v-26.67l9.79-9.36h18.46
			c0.24,0,0.46-0.09,0.63-0.25l3.87-3.62c1.51,1.23,3.45,1.97,5.55,1.95c0.04,0,0.08,0,0.12,0c4.88-0.07,8.77-4.11,8.64-9.01
			C144.15,100.86,140.18,96.99,135.53,96.99z M97.23,94.84l8.48-6.45c0.64,4.26,4.11,7.58,8.43,7.97v10.69l-16.91,16.18V94.84z"/>
		<path class="st0" d="M113.11,120.31c-3.17,0-5.71,2.59-5.67,5.75c0.01,0.84,0.2,1.63,0.54,2.35l-6.52,4.3
			c-0.26,0.17-0.42,0.46-0.42,0.77v14.27c0,0.51,0.42,0.93,0.93,0.93c0.51,0,0.93-0.42,0.93-0.93v-13.77l6.14-4.04
			c1.03,1.06,2.48,1.72,4.08,1.71c0.03,0,0.05,0,0.08,0c3.16-0.04,5.67-2.66,5.59-5.83C118.69,122.81,116.12,120.31,113.11,120.31z"
			/>
		<path class="st0" d="M81.73,114c-0.17-0.15-0.39-0.23-0.61-0.23h-8.04c-0.46-3.09-3.21-5.54-6.39-5.54
			c-3.62,0-6.52,2.96-6.47,6.56c0.03,3.55,2.92,6.4,6.47,6.38c0.03,0,0.06,0,0.09,0c3.23-0.04,5.86-2.45,6.31-5.54h7.69l8.94,7.9
			v24.22c0,0.51,0.42,0.93,0.93,0.93c0.51,0,0.93-0.42,0.93-0.93V123.1c0-0.27-0.11-0.52-0.31-0.7L81.73,114z"/>
	</g>
</g>
</svg>
