<?xml version="1.0" encoding="utf-8"?>
<!-- Generator: Adobe Illustrator 26.0.3, SVG Export Plug-In . SVG Version: 6.00 Build 0)  -->
<svg version="1.1" id="Layer_1" xmlns="http://www.w3.org/2000/svg" xmlns:xlink="http://www.w3.org/1999/xlink" x="0px" y="0px"
	 viewBox="0 0 482.74 206.3" style="enable-background:new 0 0 482.74 206.3;" xml:space="preserve">
<style type="text/css">
	.st0{fill:#1D3367;}
	.st1{fill:#FFFFFF;}
	.st2{fill:#CAE357;}
</style>
<g>
	<g>
		<g>
			<circle class="st0" cx="114.67" cy="103.15" r="83.25"/>
		</g>
		<g>
			<g>
				<path class="st2" d="M158.15,103.34c-5.58,0-10.07,4.56-9.99,10.12c0.02,2.32,0.83,4.44,2.18,6.11l-4.06,3.8h-18.41l22.79-21.8
					c0.21-0.2,0.33-0.48,0.33-0.76V83.15c3.13-0.52,5.49-3.27,5.4-6.55c-0.09-3.43-3.02-6.28-6.45-6.28c-3.61,0-6.51,2.95-6.46,6.55
					c0.02,3.18,2.36,5.8,5.4,6.28v17.22l-12.97,12.41v-10.18c5.58-0.54,9.89-5.32,9.74-11.04c-0.16-5.73-5.05-10.49-10.79-10.49
					c-0.72,0-1.42,0.07-2.1,0.21V69.02c4.38-0.53,7.74-4.32,7.62-8.85c-0.13-4.61-4.06-8.43-8.67-8.43c-4.85,0-8.75,3.96-8.68,8.8
					c0.03,4.4,3.36,8,7.62,8.49v12.91c-3.61,1.53-6.21,4.96-6.55,9.02l-9.57,7.28V77.27c3.45-0.52,6.07-3.54,5.97-7.14
					c-0.1-3.73-3.29-6.83-7.03-6.83c-3.93,0-7.09,3.21-7.03,7.13c0.03,3.49,2.62,6.36,5.97,6.85v28.37l-4.4-6.96V83.24
					c0-0.24-0.08-0.47-0.22-0.65l-9.74-12.45c2.87-2.34,4.68-5.93,4.57-9.93c-0.18-6.56-5.79-12.01-12.35-12.01
					c-6.91,0-12.46,5.65-12.37,12.53c0.05,6.78,5.58,12.23,12.36,12.19c0.06,0,0.11,0,0.17,0c2.13-0.03,4.13-0.6,5.87-1.58
					l9.6,12.27v15.39c0,0.2,0.06,0.4,0.16,0.57l6.35,10.04v15.78c-2.15-2.17-6.48-6.29-15.21-14.35c0-0.03,0.02-0.06,0.02-0.09
					V96.06c3.13-0.52,5.49-3.27,5.4-6.55c-0.1-3.43-3.02-6.28-6.45-6.28c-3.61,0-6.51,2.95-6.46,6.55c0.02,3.18,2.36,5.8,5.4,6.28
					v14.38h-8.57l-5.34-5.15c2.03-2.09,3.25-4.97,3.17-8.13c-0.17-5.96-5.25-10.9-11.21-10.9c-6.27,0-11.31,5.12-11.22,11.37
					c0.05,6.15,5.07,11.1,11.22,11.06c0.05,0,0.1,0,0.15,0c2.34-0.03,4.5-0.78,6.28-2.03l5.8,5.59c0.2,0.19,0.46,0.3,0.73,0.3h9.64
					c6.03,5.56,15.36,14.3,16.67,15.84v38.15c0,0.58,0.47,1.06,1.06,1.06s1.06-0.47,1.06-1.06v-30.39l11.15-10.67h21.04
					c0.27,0,0.53-0.1,0.72-0.29l4.41-4.13c1.72,1.4,3.93,2.24,6.33,2.23c0.05,0,0.09,0,0.14,0c5.56-0.08,10-4.69,9.84-10.26
					C167.98,107.75,163.45,103.35,158.15,103.34z M114.5,100.89l9.67-7.35c0.73,4.85,4.68,8.63,9.61,9.08v12.18l-9.29,8.89l0,0
					l-9.98,9.55V100.89z"/>
			</g>
			<g>
				<path class="st2" d="M132.6,129.92c-3.61,0-6.51,2.95-6.46,6.55c0.01,0.96,0.23,1.86,0.61,2.67l-7.43,4.9
					c-0.3,0.2-0.47,0.53-0.47,0.88v16.26c0,0.58,0.47,1.06,1.06,1.06s1.06-0.47,1.06-1.06v-15.69l7-4.61
					c1.18,1.21,2.82,1.97,4.64,1.95c0.03,0,0.06,0,0.09,0c3.6-0.05,6.47-3.03,6.37-6.64C138.96,132.76,136.03,129.92,132.6,129.92z"
					/>
			</g>
			<g>
				<path class="st2" d="M96.83,122.73c-0.19-0.17-0.44-0.26-0.7-0.26h-9.16c-0.53-3.52-3.66-6.32-7.29-6.32
					c-4.12,0-7.43,3.37-7.38,7.48c0.03,4.04,3.33,7.3,7.37,7.27c0.03,0,0.07,0,0.1,0c3.68-0.05,6.68-2.79,7.19-6.32h8.76l10.19,9
					v27.6c0,0.58,0.47,1.06,1.06,1.06s1.06-0.47,1.06-1.06V133.1c0-0.3-0.13-0.59-0.36-0.79L96.83,122.73z"/>
			</g>
		</g>
	</g>
	<g>
		<g>
			<path class="st0" d="M272.87,173.92v-20.7h3.38v20.7H272.87z"/>
		</g>
		<g>
			<path class="st0" d="M304.45,173.92h-4.15l-10.18-16.5H290l0.07,0.92c0.13,1.76,0.2,3.36,0.2,4.81v10.76h-3.07v-20.7h4.11
				l10.15,16.41h0.08c-0.02-0.22-0.06-1.01-0.11-2.37s-0.08-2.43-0.08-3.19v-10.85h3.1V173.92z"/>
		</g>
		<g>
			<path class="st0" d="M332.23,163.38c0,3.42-0.95,6.03-2.85,7.84s-4.63,2.71-8.2,2.71h-5.79v-20.7h6.4c3.29,0,5.86,0.89,7.69,2.66
				C331.31,157.66,332.23,160.16,332.23,163.38z M328.66,163.49c0-4.96-2.32-7.43-6.95-7.43h-2.93v15.02h2.41
				C326.17,171.08,328.66,168.55,328.66,163.49z"/>
		</g>
		<g>
			<path class="st0" d="M342.19,173.92v-20.7h3.38v20.7H342.19z"/>
		</g>
		<g>
			<path class="st0" d="M365.41,155.83c-1.94,0-3.47,0.69-4.59,2.07c-1.11,1.38-1.67,3.28-1.67,5.71c0,2.54,0.54,4.46,1.61,5.76
				s2.62,1.95,4.65,1.95c0.88,0,1.73-0.09,2.55-0.26s1.68-0.4,2.56-0.67v2.9c-1.62,0.61-3.46,0.92-5.52,0.92
				c-3.03,0-5.36-0.92-6.98-2.75c-1.62-1.84-2.44-4.46-2.44-7.88c0-2.15,0.39-4.04,1.18-5.65s1.93-2.85,3.42-3.71
				c1.49-0.86,3.24-1.29,5.25-1.29c2.12,0,4.07,0.44,5.86,1.33l-1.22,2.82c-0.7-0.33-1.44-0.62-2.22-0.87
				C367.09,155.95,366.27,155.83,365.41,155.83z"/>
		</g>
		<g>
			<path class="st0" d="M392.17,173.92h-11.71v-20.7h11.71v2.86h-8.33v5.64h7.8v2.83h-7.8v6.5h8.33V173.92z"/>
		</g>
		<g>
			<path class="st0" d="M414.34,168.3c0,1.84-0.67,3.29-2,4.33c-1.33,1.05-3.17,1.57-5.51,1.57c-2.34,0-4.26-0.36-5.75-1.09v-3.2
				c0.94,0.44,1.95,0.79,3.01,1.05c1.06,0.25,2.05,0.38,2.97,0.38c1.34,0,2.33-0.25,2.97-0.76c0.64-0.51,0.96-1.19,0.96-2.05
				c0-0.77-0.29-1.43-0.88-1.97c-0.58-0.54-1.79-1.18-3.62-1.91c-1.89-0.76-3.22-1.64-3.99-2.62c-0.77-0.98-1.16-2.16-1.16-3.54
				c0-1.73,0.61-3.09,1.84-4.08c1.23-0.99,2.88-1.49,4.94-1.49c1.98,0,3.96,0.43,5.92,1.3l-1.08,2.76
				c-1.84-0.77-3.48-1.16-4.93-1.16c-1.1,0-1.93,0.24-2.49,0.71s-0.85,1.11-0.85,1.89c0,0.54,0.11,1,0.34,1.38
				c0.23,0.38,0.6,0.74,1.12,1.08c0.52,0.34,1.45,0.79,2.8,1.35c1.52,0.63,2.63,1.22,3.34,1.77s1.23,1.17,1.56,1.86
				C414.18,166.56,414.34,167.37,414.34,168.3z"/>
		</g>
	</g>
	<g>
		<g>
			<path class="st0" d="M410.31,114.47c18.92,0,41.02-10.61,41.02-38.83s-22.1-38.94-41.02-38.94c-19.03,0-40.91,10.72-40.91,38.94
				S391.28,114.47,410.31,114.47z M410.31,54.09c9.19,0,20.02,6.02,20.02,21.55s-10.83,21.44-20.02,21.44
				c-9.3,0-20.02-5.91-20.02-21.44S401.01,54.09,410.31,54.09z"/>
		</g>
		<g>
			<polygon class="st0" points="297.87,37.9 234.43,37.9 234.43,54.42 255.76,54.42 255.76,113.27 276.65,113.27 276.65,54.42 
				297.87,54.42 			"/>
		</g>
		<g>
			<polygon class="st0" points="367.76,37.9 304.31,37.9 304.31,54.42 325.65,54.42 325.65,113.27 346.54,113.27 346.54,54.42 
				367.76,54.42 			"/>
		</g>
	</g>
	<g>
		<path class="st2" d="M451,140.6H234.76c-0.69,0-1.25-0.56-1.25-1.25s0.56-1.25,1.25-1.25H451c0.69,0,1.25,0.56,1.25,1.25
			S451.69,140.6,451,140.6z"/>
	</g>
</g>
</svg>
