<?xml version="1.0" encoding="utf-8"?>
<!-- Generator: Adobe Illustrator 26.0.3, SVG Export Plug-In . SVG Version: 6.00 Build 0)  -->
<svg version="1.1" id="Layer_1" xmlns="http://www.w3.org/2000/svg" xmlns:xlink="http://www.w3.org/1999/xlink" x="0px" y="0px"
	 viewBox="0 0 482.74 206.3" style="enable-background:new 0 0 482.74 206.3;" xml:space="preserve">
<style type="text/css">
	.st0{fill:#1D3367;}
	.st1{fill:#FFFFFF;}
	.st2{fill:#CAE357;}
</style>
<g>
	<g>
		<g>
			<path class="st0" d="M243.05,172.78l-5.69-16.4h-0.11c0.15,2.44,0.23,4.72,0.23,6.85v9.55h-2.91v-19.63h4.52l5.45,15.62h0.08
				l5.61-15.62h4.54v19.63h-3.09v-9.71c0-0.98,0.02-2.25,0.07-3.81c0.05-1.57,0.09-2.52,0.13-2.85h-0.11l-5.89,16.37H243.05z"/>
		</g>
		<g>
			<path class="st0" d="M275.05,172.78l-1.96-5.45h-7.51l-1.92,5.45h-3.38l7.34-19.71h3.49l7.34,19.71H275.05z M272.24,164.57
				l-1.84-5.34c-0.13-0.36-0.32-0.92-0.56-1.69s-0.4-1.33-0.49-1.69c-0.24,1.1-0.6,2.3-1.06,3.61l-1.77,5.12H272.24z"/>
		</g>
		<g>
			<path class="st0" d="M287.19,164.94v7.84h-3.21v-19.63h5.54c2.53,0,4.41,0.47,5.63,1.42c1.22,0.95,1.83,2.38,1.83,4.3
				c0,2.44-1.27,4.18-3.81,5.22l5.54,8.69h-3.65l-4.7-7.84H287.19z M287.19,162.28h2.23c1.5,0,2.58-0.28,3.25-0.83
				c0.67-0.55,1.01-1.38,1.01-2.47c0-1.11-0.36-1.91-1.09-2.39c-0.72-0.48-1.82-0.73-3.28-0.73h-2.12V162.28z"/>
		</g>
		<g>
			<path class="st0" d="M319.33,172.78h-3.72l-6.16-8.89l-1.89,1.54v7.34h-3.21v-19.63h3.21v9.37c0.88-1.07,1.75-2.11,2.62-3.1
				l5.3-6.27h3.65c-3.43,4.03-5.89,6.9-7.37,8.61L319.33,172.78z"/>
		</g>
		<g>
			<path class="st0" d="M335.95,172.78h-11.1v-19.63h11.1v2.71h-7.9v5.34h7.4v2.69h-7.4v6.16h7.9V172.78z"/>
		</g>
		<g>
			<path class="st0" d="M350.18,172.78h-3.21V155.9h-5.77v-2.75h14.76v2.75h-5.77V172.78z"/>
		</g>
		<g>
			<path class="st0" d="M374.66,159.09c0,2.05-0.67,3.62-2.01,4.71c-1.34,1.09-3.25,1.64-5.73,1.64h-2.04v7.34h-3.21v-19.63h5.65
				c2.45,0,4.29,0.5,5.51,1.5C374.05,155.66,374.66,157.14,374.66,159.09z M364.87,162.74h1.71c1.65,0,2.86-0.29,3.63-0.86
				c0.77-0.57,1.15-1.47,1.15-2.69c0-1.13-0.34-1.97-1.03-2.52s-1.76-0.83-3.22-0.83h-2.23V162.74z"/>
		</g>
		<g>
			<path class="st0" d="M380.82,172.78v-19.63h3.21v16.88h8.31v2.75H380.82z"/>
		</g>
		<g>
			<path class="st0" d="M411.74,172.78l-1.96-5.45h-7.51l-1.92,5.45h-3.38l7.34-19.71h3.49l7.34,19.71H411.74z M408.94,164.57
				l-1.84-5.34c-0.13-0.36-0.32-0.92-0.56-1.69s-0.4-1.33-0.49-1.69c-0.24,1.1-0.6,2.3-1.06,3.61l-1.77,5.12H408.94z"/>
		</g>
		<g>
			<path class="st0" d="M428.27,155.62c-1.84,0-3.29,0.65-4.35,1.96s-1.58,3.11-1.58,5.41c0,2.41,0.51,4.23,1.52,5.46
				c1.02,1.24,2.49,1.85,4.41,1.85c0.83,0,1.64-0.08,2.42-0.25c0.78-0.17,1.59-0.38,2.43-0.64v2.75c-1.54,0.58-3.29,0.87-5.24,0.87
				c-2.87,0-5.08-0.87-6.62-2.61c-1.54-1.74-2.31-4.23-2.31-7.47c0-2.04,0.37-3.83,1.12-5.36c0.75-1.53,1.83-2.7,3.24-3.52
				c1.42-0.81,3.08-1.22,4.98-1.22c2,0,3.86,0.42,5.56,1.26l-1.15,2.67c-0.66-0.31-1.36-0.59-2.1-0.83
				C429.87,155.74,429.09,155.62,428.27,155.62z"/>
		</g>
		<g>
			<path class="st0" d="M450.92,172.78h-11.1v-19.63h11.1v2.71h-7.9v5.34h7.4v2.69h-7.4v6.16h7.9V172.78z"/>
		</g>
	</g>
	<g>
		<g>
			<path class="st0" d="M409.7,110.54c18.92,0,41.02-10.61,41.02-38.83s-22.1-38.94-41.02-38.94c-19.03,0-40.91,10.72-40.91,38.94
				S390.67,110.54,409.7,110.54z M409.7,50.16c9.19,0,20.02,6.02,20.02,21.55s-10.83,21.44-20.02,21.44
				c-9.3,0-20.02-5.91-20.02-21.44S400.41,50.16,409.7,50.16z"/>
		</g>
		<g>
			<polygon class="st0" points="297.27,33.97 233.82,33.97 233.82,50.48 255.15,50.48 255.15,109.33 276.04,109.33 276.04,50.48 
				297.27,50.48 			"/>
		</g>
		<g>
			<polygon class="st0" points="367.15,33.97 303.71,33.97 303.71,50.48 325.04,50.48 325.04,109.33 345.93,109.33 345.93,50.48 
				367.15,50.48 			"/>
		</g>
	</g>
	<g>
		<g>
			<circle class="st0" cx="115.08" cy="103.15" r="83.25"/>
		</g>
		<g>
			<g>
				<path class="st2" d="M158.56,103.34c-5.58,0-10.07,4.56-9.99,10.12c0.02,2.32,0.83,4.44,2.18,6.11l-4.06,3.81h-18.41l22.79-21.8
					c0.21-0.2,0.33-0.48,0.33-0.76V83.15c3.13-0.52,5.49-3.27,5.4-6.55c-0.09-3.43-3.02-6.28-6.45-6.28c-3.61,0-6.51,2.95-6.46,6.55
					c0.02,3.18,2.36,5.8,5.4,6.28v17.22l-12.97,12.41v-10.18c5.58-0.54,9.89-5.32,9.74-11.04c-0.16-5.73-5.05-10.49-10.79-10.49
					c-0.72,0-1.42,0.07-2.1,0.21V69.02c4.38-0.53,7.74-4.32,7.62-8.85c-0.13-4.61-4.06-8.43-8.67-8.43c-4.85,0-8.75,3.96-8.68,8.8
					c0.03,4.4,3.36,8,7.62,8.49v12.91c-3.61,1.53-6.21,4.96-6.55,9.02l-9.57,7.28V77.27c3.45-0.52,6.07-3.54,5.97-7.14
					c-0.1-3.73-3.29-6.83-7.03-6.83c-3.93,0-7.09,3.21-7.03,7.13c0.03,3.49,2.62,6.36,5.97,6.85v28.37l-4.4-6.96V83.24
					c0-0.24-0.08-0.47-0.22-0.65l-9.74-12.45c2.87-2.34,4.68-5.93,4.57-9.93c-0.18-6.56-5.79-12.01-12.35-12.01
					c-6.91,0-12.46,5.65-12.37,12.53c0.05,6.78,5.58,12.23,12.36,12.19c0.06,0,0.11,0,0.17,0c2.13-0.03,4.13-0.6,5.87-1.58
					l9.6,12.26v15.39c0,0.2,0.06,0.4,0.16,0.57l6.35,10.04v15.78c-2.15-2.17-6.48-6.29-15.21-14.35c0-0.03,0.02-0.06,0.02-0.09
					V96.06c3.13-0.52,5.49-3.27,5.4-6.55c-0.1-3.43-3.02-6.28-6.45-6.28c-3.61,0-6.51,2.95-6.46,6.55c0.02,3.18,2.36,5.8,5.4,6.28
					v14.38h-8.57l-5.34-5.15c2.03-2.09,3.25-4.97,3.17-8.13c-0.17-5.96-5.25-10.9-11.21-10.9c-6.27,0-11.31,5.13-11.22,11.37
					c0.05,6.15,5.07,11.1,11.22,11.06c0.05,0,0.1,0,0.15,0c2.34-0.03,4.5-0.78,6.28-2.03l5.8,5.59c0.2,0.19,0.46,0.3,0.73,0.3h9.64
					c6.03,5.56,15.36,14.3,16.67,15.84v38.15c0,0.58,0.47,1.06,1.06,1.06s1.06-0.47,1.06-1.06v-30.39l11.15-10.67h21.04
					c0.27,0,0.53-0.1,0.72-0.29l4.41-4.13c1.72,1.4,3.93,2.24,6.32,2.23c0.05,0,0.09,0,0.14,0c5.56-0.08,10-4.69,9.84-10.26
					C168.39,107.75,163.86,103.35,158.56,103.34z M114.91,100.89l9.67-7.35c0.73,4.85,4.68,8.63,9.61,9.08v12.18l-9.29,8.89l0,0
					l-9.98,9.55V100.89z"/>
			</g>
			<g>
				<path class="st2" d="M133.02,129.92c-3.61,0-6.51,2.95-6.46,6.55c0.01,0.96,0.23,1.86,0.61,2.67l-7.43,4.9
					c-0.3,0.2-0.47,0.53-0.47,0.88v16.26c0,0.58,0.47,1.06,1.06,1.06s1.06-0.47,1.06-1.06v-15.69l7-4.61
					c1.18,1.21,2.82,1.97,4.64,1.95c0.03,0,0.06,0,0.09,0c3.6-0.05,6.47-3.03,6.37-6.64C139.37,132.76,136.45,129.92,133.02,129.92z
					"/>
			</g>
			<g>
				<path class="st2" d="M97.25,122.73c-0.19-0.17-0.44-0.26-0.7-0.26h-9.16c-0.53-3.52-3.66-6.32-7.29-6.32
					c-4.12,0-7.43,3.37-7.38,7.48c0.03,4.04,3.33,7.3,7.37,7.27c0.03,0,0.07,0,0.1,0c3.68-0.05,6.68-2.79,7.19-6.32h8.76l10.19,9
					v27.6c0,0.58,0.47,1.06,1.06,1.06s1.06-0.47,1.06-1.06V133.1c0-0.3-0.13-0.59-0.36-0.79L97.25,122.73z"/>
			</g>
		</g>
	</g>
	<g>
		<path class="st2" d="M450.39,140.6H234.15c-0.69,0-1.25-0.56-1.25-1.25s0.56-1.25,1.25-1.25h216.24c0.69,0,1.25,0.56,1.25,1.25
			S451.08,140.6,450.39,140.6z"/>
	</g>
</g>
</svg>
