<?xml version="1.0" encoding="utf-8"?>
<!-- Generator: Adobe Illustrator 26.0.3, SVG Export Plug-In . SVG Version: 6.00 Build 0)  -->
<svg version="1.1" id="Layer_1" xmlns="http://www.w3.org/2000/svg" xmlns:xlink="http://www.w3.org/1999/xlink" x="0px" y="0px"
	 viewBox="0 0 417.93 145.24" style="enable-background:new 0 0 417.93 145.24;" xml:space="preserve">
<style type="text/css">
	.st0{fill:none;}
	.st1{fill:#17336B;}
	.st2{fill:#FFFFFF;}
	.st3{fill:#C1E333;}
</style>
<g>
	<path id="Path_1262_00000073719911681995179960000014634344685150669477_" class="st3" d="M11.71,92.1l4.34-1.03
		c2.82-0.67,6.97-1.69,12.3-2.8c5.31-1.16,11.78-2.46,19.22-3.88c7.44-1.42,15.85-2.94,25.07-4.29c9.21-1.43,19.23-2.75,29.83-4.07
		c10.61-1.23,21.82-2.49,33.45-3.35c11.62-0.94,23.65-1.71,35.89-2.19c12.24-0.51,24.67-0.73,37.12-0.81
		c12.43,0.06,24.88,0.23,37.12,0.73c12.24,0.41,24.27,1.21,35.89,2.1c11.64,0.82,22.84,2.07,33.46,3.27
		c10.61,1.29,20.63,2.59,29.84,4c9.23,1.32,17.64,2.82,25.08,4.23c7.44,1.4,13.92,2.68,19.23,3.83c5.32,1.09,9.47,2.1,12.31,2.76
		l4.34,1.02l-4.4-0.75l-12.43-2.06c-5.35-0.9-11.86-1.88-19.35-2.93c-3.74-0.51-7.72-1.08-11.93-1.58
		c-4.2-0.54-8.62-1.14-13.23-1.67c-9.23-1.14-19.24-2.15-29.84-3.15c-10.61-0.89-21.8-1.78-33.39-2.49
		c-5.79-0.41-11.69-0.64-17.65-0.97c-5.97-0.2-12.01-0.53-18.1-0.69c-12.18-0.45-24.55-0.54-36.94-0.55
		c-12.38,0.02-24.76,0.19-36.94,0.63c-12.18,0.44-24.17,0.94-35.75,1.74c-11.58,0.75-22.79,1.63-33.38,2.56
		c-10.6,1.01-20.62,2.05-29.83,3.22c-4.61,0.59-9.03,1.16-13.23,1.69c-4.21,0.51-8.18,1.09-11.93,1.61
		c-7.48,1.07-14,2.07-19.34,2.98l-12.43,2.1l-4.4,0.75"/>
	<g>
		<path class="st2" d="M301.21,49.21c-0.41,0.02-0.79,0.1-1.12,0.23c-0.36,0.14-0.69,0.35-0.97,0.64c-0.27,0.27-0.52,0.62-0.77,1.09
			l-11.67,22.97c-0.45,0.81-0.87,1.67-1.26,2.55c-0.17,0.38-0.33,0.77-0.5,1.16c-0.16-0.37-0.32-0.74-0.48-1.1
			c-0.39-0.86-0.8-1.71-1.22-2.5l-11.72-23.1c-0.24-0.46-0.49-0.82-0.76-1.09c-0.29-0.29-0.61-0.5-0.97-0.64
			c-0.33-0.13-0.71-0.21-1.12-0.23c-0.36-0.02-0.77-0.03-1.24-0.03h-8.74l0,46.88h10.67V69.2c0-0.32-0.01-0.65-0.02-1l10.61,20.58
			c0.43,0.84,1.03,1.49,1.77,1.93c0.74,0.44,1.58,0.66,2.52,0.66h1.44c0.93,0,1.78-0.22,2.52-0.66c0.74-0.44,1.34-1.09,1.77-1.93
			l10.6-20.52c-0.01,0.32-0.01,0.63-0.01,0.93v26.86h10.67V49.18h-8.74C301.98,49.18,301.57,49.19,301.21,49.21z"/>
		<path class="st2" d="M343.01,49.18h-11.74l-18.15,46.88h9.24c1.03,0,1.91-0.29,2.62-0.85c0.69-0.54,1.17-1.17,1.46-1.89l2.53-7.47
			h16.34l2.55,7.53c0.34,0.77,0.84,1.41,1.49,1.91c0.68,0.52,1.56,0.78,2.63,0.78h9.18L343.01,49.18z M336.75,62.97
			c0.13-0.4,0.26-0.82,0.39-1.25c0.13,0.41,0.26,0.82,0.39,1.2c0.36,1.08,0.7,2.03,1,2.8l3.91,11.57h-10.58l3.88-11.49
			C336.06,65.01,336.4,64.06,336.75,62.97z"/>
		<path class="st2" d="M245.96,71.71c0.7-0.34,1.33-0.71,1.9-1.11c1.03-0.73,1.89-1.54,2.56-2.41c0.67-0.88,1.17-1.85,1.48-2.87
			c0.31-1.01,0.47-2.07,0.47-3.15c0-1.96-0.34-3.76-1.01-5.35c-0.68-1.63-1.78-3.02-3.26-4.15c-1.46-1.11-3.36-1.98-5.64-2.58
			c-2.25-0.6-5.01-0.9-8.2-0.9h-17.43v46.88h18.86c2.79,0,5.31-0.36,7.49-1.08c2.2-0.72,4.08-1.74,5.59-3.03
			c1.52-1.3,2.69-2.84,3.47-4.6c0.79-1.75,1.18-3.66,1.18-5.68c0-2.74-0.78-5.02-2.33-6.76C249.9,73.54,248.17,72.47,245.96,71.71z
			 M241.34,79.41c0.2,0.6,0.29,1.28,0.29,2.04c0,0.67-0.09,1.33-0.26,1.98c-0.16,0.6-0.46,1.15-0.88,1.63
			c-0.43,0.48-1.04,0.88-1.82,1.2c-0.8,0.32-1.87,0.48-3.17,0.48h-6.76v-9.98h6.7c1.26,0,2.32,0.12,3.13,0.35
			c0.78,0.22,1.4,0.53,1.85,0.92C240.86,78.4,241.16,78.86,241.34,79.41z M240.09,60.96c0.24,0.64,0.36,1.47,0.36,2.46
			c0,1-0.15,1.83-0.45,2.46c-0.29,0.62-0.7,1.09-1.25,1.44c-0.58,0.37-1.3,0.63-2.15,0.78c-0.89,0.16-1.92,0.24-3.04,0.24h-4.82
			v-9.89h5.51c1.13,0,2.12,0.09,2.93,0.27c0.76,0.16,1.39,0.44,1.87,0.81C239.52,59.88,239.86,60.35,240.09,60.96z"/>
	</g>
	<g>
		<path class="st2" d="M161.73,95.38c11.08,0,24.01-6.21,24.01-22.73s-12.93-22.79-24.01-22.79c-11.14,0-23.95,6.27-23.95,22.79
			S150.59,95.38,161.73,95.38z M161.73,60.04c5.38,0,11.72,3.52,11.72,12.61c0,9.09-6.34,12.55-11.72,12.55
			c-5.44,0-11.72-3.46-11.72-12.55C150.01,63.56,156.29,60.04,161.73,60.04z"/>
		<polygon class="st2" points="95.92,50.56 58.79,50.56 58.79,60.23 71.27,60.23 71.27,94.67 83.5,94.67 83.5,60.23 95.92,60.23 		
			"/>
		<polygon class="st2" points="136.82,50.56 99.69,50.56 99.69,60.23 112.17,60.23 112.17,94.67 124.4,94.67 124.4,60.23 
			136.82,60.23 		"/>
	</g>
</g>
</svg>
