<svg xmlns="http://www.w3.org/2000/svg" width="386.402" height="44.587" viewBox="0 0 386.402 44.587">
  <defs>
    <style>
      .cls-1 {
        fill: #c3e532;
      }

      .cls-2 {
        fill: #fff;
      }
    </style>
  </defs>
  <g id="Group_3761" data-name="Group 3761" transform="translate(46.107)">
    <path id="Path_1556" data-name="Path 1556" class="cls-1" d="M124.608,1413.074l4.251-1.009c2.774-.656,6.832-1.662,12.047-2.741,5.2-1.136,11.538-2.409,18.825-3.8s15.526-2.88,24.561-4.2c9.025-1.4,18.834-2.7,29.222-3.982,10.4-1.2,21.372-2.445,32.762-3.28,11.385-.914,23.167-1.676,35.153-2.143,11.982-.5,24.169-.715,36.353-.792,12.173.057,24.367.221,36.358.713,11.987.405,23.77,1.183,35.155,2.055,11.4.8,22.37,2.032,32.771,3.2,10.39,1.267,20.2,2.537,29.231,3.917,9.036,1.3,17.28,2.77,24.569,4.139s13.633,2.625,18.837,3.749c5.213,1.066,9.278,2.059,12.054,2.707l4.253,1s-1.5-.257-4.308-.732-6.933-1.151-12.18-2.02-11.626-1.841-18.956-2.869c-3.666-.5-7.564-1.056-11.687-1.55-4.116-.529-8.437-1.119-12.959-1.639-9.037-1.122-18.848-2.11-29.229-3.081-10.392-.872-21.354-1.74-32.705-2.439-5.67-.4-11.448-.628-17.289-.952-5.846-.2-11.759-.516-17.726-.672-11.925-.437-24.045-.528-36.182-.542-12.124.021-24.252.18-36.182.617s-23.669.923-35.013,1.7c-11.347.734-22.311,1.6-32.7,2.512-10.381.991-20.192,2-29.222,3.151-4.515.579-8.843,1.137-12.959,1.668-4.121.5-8.017,1.072-11.68,1.582-7.327,1.05-13.709,2.024-18.947,2.921l-12.173,2.055-4.308.746" transform="translate(-170.715 -1374.487)"/>
    <path id="Path_1483" data-name="Path 1483" class="cls-2" d="M20.517,46.915a9.133,9.133,0,0,0,3.351-.52A5.3,5.3,0,0,0,25.9,45.048a4.517,4.517,0,0,0,1.01-1.867,8.218,8.218,0,0,0,.275-2.112,7.048,7.048,0,0,0-.321-2.2,3.644,3.644,0,0,0-1.1-1.653,5.383,5.383,0,0,0-2.066-1.04,12.037,12.037,0,0,0-3.244-.367H13.234V46.915ZM13.234,17.874V28.89H18.62a17.749,17.749,0,0,0,3.091-.245,6.426,6.426,0,0,0,2.341-.857,3.933,3.933,0,0,0,1.469-1.683,6.313,6.313,0,0,0,.5-2.693,7.576,7.576,0,0,0-.4-2.647,3.792,3.792,0,0,0-1.224-1.7,5.139,5.139,0,0,0-2.1-.918,14.392,14.392,0,0,0-3.014-.275Zm6.059-7.742a31.187,31.187,0,0,1,7.865.857,14.983,14.983,0,0,1,5.294,2.418A9.162,9.162,0,0,1,35.436,17.2a12.822,12.822,0,0,1,.933,4.988,9.777,9.777,0,0,1-.428,2.892,8.325,8.325,0,0,1-1.346,2.6A10.493,10.493,0,0,1,32.238,29.9a14.8,14.8,0,0,1-3.458,1.744A12.337,12.337,0,0,1,35.3,35.1a8.983,8.983,0,0,1,2.112,6.182,12.75,12.75,0,0,1-1.1,5.294,12.124,12.124,0,0,1-3.228,4.269,15.308,15.308,0,0,1-5.248,2.846,22.823,22.823,0,0,1-7.13,1.025H2.891V10.132Zm74.7,0V54.718H84.873V29.074q0-.887.046-1.928t.168-2.112L73.244,47.955a3.891,3.891,0,0,1-1.484,1.622,4.1,4.1,0,0,1-2.127.551H68.225a4.1,4.1,0,0,1-2.127-.551,3.891,3.891,0,0,1-1.484-1.622L52.772,24.973q.092,1.1.153,2.157t.061,1.943V54.718H43.866V10.132h7.9q.673,0,1.178.031a3.015,3.015,0,0,1,.9.184,2.054,2.054,0,0,1,.719.474,3.741,3.741,0,0,1,.627.9L66.665,34.338q.612,1.163,1.178,2.418t1.086,2.571q.52-1.346,1.086-2.632t1.209-2.448L82.67,11.723a3.741,3.741,0,0,1,.627-.9,2.054,2.054,0,0,1,.719-.474,3.015,3.015,0,0,1,.9-.184q.5-.031,1.178-.031Zm32.193,27.542-4.131-12.21q-.459-1.163-.979-2.739t-1.04-3.412q-.459,1.867-.979,3.458t-.979,2.754l-4.1,12.149Zm16.433,17.045H134.6a3.5,3.5,0,0,1-2.173-.627,3.985,3.985,0,0,1-1.255-1.607l-2.632-7.773H111.588l-2.632,7.773a3.72,3.72,0,0,1-1.209,1.545,3.374,3.374,0,0,1-2.157.689H97.511l17.259-44.587h10.588Z" transform="translate(152.571 -10.131)"/>
    <path id="Path_1555" data-name="Path 1555" class="cls-2" d="M84.207,58.1V24.359H96.373V14.89H60v9.469H72.229V58.1Zm40.064,0V24.359h12.166V14.89H100.065v9.469h12.228V58.1Zm48.036-21.572c0,8.9-6.208,12.291-11.476,12.291-5.33,0-11.476-3.386-11.476-12.291s6.146-12.354,11.476-12.354C166.1,24.171,172.307,27.62,172.307,36.525Zm12.04,0c0-16.179-12.667-22.325-23.516-22.325-10.911,0-23.453,6.146-23.453,22.325s12.542,22.262,23.453,22.262C171.68,58.787,184.347,52.7,184.347,36.525Z" transform="translate(-60.001 -14.2)"/>
  </g>
</svg>