<?xml version="1.0" encoding="utf-8"?>
<!-- Generator: Adobe Illustrator 26.0.3, SVG Export Plug-In . SVG Version: 6.00 Build 0)  -->
<svg version="1.1" id="Layer_1" xmlns="http://www.w3.org/2000/svg" xmlns:xlink="http://www.w3.org/1999/xlink" x="0px" y="0px"
	 viewBox="0 0 417.93 145.24" style="enable-background:new 0 0 417.93 145.24;" xml:space="preserve">
<style type="text/css">
	.st0{fill:#FFFFFF;}
	.st1{fill:#17336B;}
	.st2{fill:#C3E532;}
	.st3{fill:#CCCCCC;}
	.st4{fill:#999999;}
	.st5{fill:#1E3C72;}
	.st6{fill:#E6E6E6;}
	.st7{fill:url(#SVGID_1_);}
	.st8{fill:url(#SVGID_00000147211894891886930890000008672822739739991434_);}
	.st9{fill:url(#SVGID_00000162310570271083844680000011701086675974736028_);}
	.st10{fill:url(#SVGID_00000170963688374070368490000013934447945551251634_);}
	
		.st11{clip-path:url(#SVGID_00000009569131569492619420000016884058865208936875_);fill:url(#SVGID_00000078010333531920725570000011132860508200532888_);}
	
		.st12{clip-path:url(#Path_1303_00000021798214523481523700000010467428142157427075_);fill:url(#SVGID_00000018223670068566310900000008479809696760876427_);}
	
		.st13{clip-path:url(#SVGID_00000011715028098935874050000003137901623518237060_);fill:url(#SVGID_00000180348190282285124850000000116243722765577394_);}
	.st14{fill:url(#SVGID_00000044160689945993933060000014119597165317809804_);}
	.st15{fill:url(#SVGID_00000131341720721278513040000009057707021174833800_);}
	.st16{fill:url(#SVGID_00000070120365483662324750000006894176031604323202_);}
	.st17{fill:url(#SVGID_00000150821712478366522540000006111593132593456041_);}
	
		.st18{clip-path:url(#SVGID_00000057837666246371962960000012475525184976131501_);fill:url(#SVGID_00000113342538474799425200000009288149779799630737_);}
	
		.st19{clip-path:url(#Path_1303_00000023977171109676156190000015796500723391254168_);fill:url(#SVGID_00000080885475068871282210000004076137862987039381_);}
	
		.st20{clip-path:url(#SVGID_00000181074165785604189640000017239548680023050902_);fill:url(#SVGID_00000011737173914971730410000013743010142517831058_);}
	.st21{fill:url(#SVGID_00000101812504240461304950000015290912379152838287_);}
	.st22{fill:url(#SVGID_00000106130550575224661230000004027681056850577043_);}
	.st23{fill:url(#SVGID_00000030476852769618093730000012354971614859082659_);}
	.st24{fill:url(#SVGID_00000013883738757344028780000017904808374435695011_);}
	
		.st25{clip-path:url(#SVGID_00000015321549389564189490000002293466589418899389_);fill:url(#SVGID_00000154385416016928487240000016131018360545897131_);}
	
		.st26{clip-path:url(#Path_1303_00000178191169239038340330000003871967646755522482_);fill:url(#SVGID_00000106117171883785581400000002246023796970675628_);}
	
		.st27{clip-path:url(#SVGID_00000140707999732558447220000002098132947322489498_);fill:url(#SVGID_00000023242819113679969950000003095061210859796884_);}
	.st28{fill:url(#SVGID_00000049209798525963853480000014224463773851068327_);}
	.st29{fill:url(#SVGID_00000060735788866632215480000015420159670278978446_);}
	.st30{fill:url(#SVGID_00000107557924746088589710000008137751816658149035_);}
	.st31{fill:url(#SVGID_00000115479617711218228160000015238566726594019234_);}
	
		.st32{clip-path:url(#SVGID_00000100348856369075327940000011130875684167816346_);fill:url(#SVGID_00000067238385603148718300000004742257431809682353_);}
	
		.st33{clip-path:url(#Path_1303_00000004521150425948227360000009735112189317701038_);fill:url(#SVGID_00000119816216072386578120000008902269163461654942_);}
	
		.st34{clip-path:url(#SVGID_00000183233195572408193260000001990279921775128511_);fill:url(#SVGID_00000150792704865552299080000010168200194374458789_);}
	.st35{fill:none;stroke:#17336B;stroke-width:0.75;stroke-miterlimit:10;}
	.st36{fill:url(#SVGID_00000167392681029745965660000014500200922317160888_);}
	.st37{fill:url(#SVGID_00000005259397362110681220000013620978704768514223_);}
	.st38{fill:url(#SVGID_00000074422293411587265780000012508884205411628677_);}
	.st39{fill:url(#SVGID_00000009556508732961341030000008260964670911132829_);}
	
		.st40{clip-path:url(#SVGID_00000165212521047613190750000007836613519289757095_);fill:url(#SVGID_00000000198362515088029920000001375559686621537934_);}
	
		.st41{clip-path:url(#Path_1303_00000089545451870980552210000002663951501265073797_);fill:url(#SVGID_00000075140008953646850500000013975206954289033911_);}
	
		.st42{clip-path:url(#SVGID_00000118389182662007174540000008895963892118693266_);fill:url(#SVGID_00000025425283593988250100000010356130541702300321_);}
	.st43{fill:none;stroke:#17336B;stroke-width:0.8092;stroke-miterlimit:10;}
	.st44{fill:url(#SVGID_00000059997745442535075470000011682822070025489084_);}
	.st45{fill:url(#SVGID_00000065063933028064903330000005598567045802831777_);}
	.st46{fill:url(#SVGID_00000018202293603740196300000000546056838913245079_);}
	.st47{fill:url(#SVGID_00000168109555190872625290000012663739507468355484_);}
	
		.st48{clip-path:url(#SVGID_00000177486056284037589200000007860639467991301049_);fill:url(#SVGID_00000085243213487677094930000014385341750506344109_);}
	
		.st49{clip-path:url(#Path_1303_00000059281634466617286710000003877534854181608593_);fill:url(#SVGID_00000087378196717676009690000008778943054162767534_);}
	
		.st50{clip-path:url(#SVGID_00000043427693807578904570000012685339661774433677_);fill:url(#SVGID_00000013157167672801005060000011393186613461709730_);}
	.st51{fill:none;stroke:#17336B;stroke-width:0.4679;stroke-miterlimit:10;}
	.st52{fill:url(#SVGID_00000089560902737895551220000010404544485792053149_);}
	.st53{fill:url(#SVGID_00000077283437428513783080000010866143408342143369_);}
	.st54{fill:url(#SVGID_00000155147774092355109390000000433067259959460994_);}
	.st55{fill:url(#SVGID_00000172410372845820880240000003360474416844181173_);}
	
		.st56{clip-path:url(#SVGID_00000133529993015529203170000007570147038846352567_);fill:url(#SVGID_00000090284901030182968820000006809508732139928248_);}
	
		.st57{clip-path:url(#Path_1303_00000093879004882058011570000014436903076513865866_);fill:url(#SVGID_00000108293928045021850040000010338552350422280599_);}
	
		.st58{clip-path:url(#SVGID_00000169535716063224249780000014645199363770427290_);fill:url(#SVGID_00000011734968617805344060000000849648616472343718_);}
	.st59{fill:url(#SVGID_00000157284589369462712000000000360268118246257295_);}
	.st60{fill:url(#SVGID_00000170279721478712149710000006416408531058759334_);}
	.st61{fill:url(#SVGID_00000116228280652438087080000008271586123858585784_);}
	.st62{fill:url(#SVGID_00000034088749254538434580000003219934157389992332_);}
	
		.st63{clip-path:url(#SVGID_00000165917891110019569950000013529140517439993993_);fill:url(#SVGID_00000082335896500184933980000008081487801604349882_);}
	
		.st64{clip-path:url(#Path_1303_00000162336427240928036210000005577129447855850415_);fill:url(#SVGID_00000044872942018307522380000001423490272922476702_);}
	
		.st65{clip-path:url(#SVGID_00000032611759104868791200000005205754374136260773_);fill:url(#SVGID_00000128445892954565047290000010305106744133182340_);}
	.st66{fill:none;stroke:#17336B;stroke-width:0.5091;stroke-miterlimit:10;}
</style>
<path class="st2" d="M232.25,79.02c-1.33-0.31-3.14-0.74-5.34-1.19c-2.5-0.54-5.59-1.16-9.47-1.88c-3.22-0.6-7.53-1.39-12.35-2.08
	c-4-0.61-8.53-1.22-14.77-1.98c-5.26-0.59-10.69-1.2-16.39-1.6c-7.05-0.54-12.5-0.86-17.66-1.03c-6.62-0.27-13.24-0.33-18.27-0.36
	c-6.27,0.04-12.42,0.18-18.26,0.4c-5.51,0.21-11.29,0.56-17.66,1.07c-5.67,0.42-11.02,1.02-16.47,1.65
	c-6.21,0.77-10.73,1.39-14.68,2c-5,0.73-9.44,1.56-12.35,2.11c-4.04,0.77-7.04,1.38-9.45,1.91c-2.16,0.45-3.95,0.87-5.26,1.19
	l-2.94,0.7l0.14,0.61l0,0l0,0l0.06,0.27l0.06,0.36l8.27-1.41c2.44-0.42,5.54-0.9,9.49-1.47l0.9-0.13c1.57-0.22,3.22-0.45,4.96-0.67
	l6.5-0.84c3.92-0.5,8.44-0.99,14.64-1.58c5.78-0.51,11.14-0.92,16.39-1.26c5.8-0.4,11.86-0.65,17.55-0.85
	c5.62-0.2,11.72-0.31,18.13-0.31c5.37,0,11.72,0.03,18.14,0.27c1.71,0.04,3.42,0.12,5.11,0.19c1.27,0.05,2.52,0.11,3.76,0.15
	c1,0.06,1.99,0.1,2.98,0.15c1.91,0.1,3.81,0.19,5.69,0.32c6.01,0.37,11.66,0.83,16.39,1.22c6.19,0.58,10.71,1.06,14.65,1.54
	c1.19,0.14,2.36,0.29,3.5,0.44c1.02,0.13,2.02,0.27,3,0.38c1.67,0.2,3.27,0.42,4.8,0.63l1.05,0.15c3.75,0.53,6.94,1.01,9.5,1.44
	l8.27,1.38l0.25-1.22L232.25,79.02z"/>
<g>
	<path class="st1" d="M357.8,50h-11.19l-17.15,44.31l8.83,0c0.04,0,0.09,0,0.13,0c0.87,0,1.72-0.29,2.41-0.81
		c0.62-0.46,1.11-1.08,1.42-1.84l2.35-6.95h15.2l2.37,7c0.31,0.73,0.81,1.37,1.46,1.86c0.74,0.52,1.65,0.78,2.52,0.74h8.79L357.8,50
		z M351.96,63.11c0.09-0.27,0.17-0.54,0.26-0.82c0.08,0.27,0.17,0.53,0.25,0.78c0.33,1.02,0.65,1.92,0.94,2.64l3.63,10.73h-9.63
		L351,65.8C351.3,65.05,351.62,64.14,351.96,63.11z"/>
	<path class="st1" d="M317.42,50.03c-0.37,0.02-0.74,0.09-1.1,0.23c-0.36,0.14-0.68,0.35-0.96,0.64c-0.29,0.31-0.54,0.66-0.72,1.04
		l-10.98,21.6c-0.42,0.76-0.82,1.57-1.19,2.41c-0.12,0.28-0.25,0.56-0.37,0.85c-0.12-0.27-0.23-0.53-0.35-0.79
		c-0.37-0.82-0.76-1.61-1.15-2.35l-11.02-21.71c-0.19-0.38-0.43-0.74-0.74-1.06c-0.27-0.28-0.59-0.49-0.97-0.63
		c-0.35-0.13-0.72-0.2-1.08-0.22c-0.34-0.02-0.73-0.03-1.18-0.03h-8.33v44.31h10.25V68.94c0-0.15,0-0.3,0-0.46l9.74,18.91
		c0.38,0.78,0.98,1.42,1.73,1.87c0.74,0.43,1.58,0.64,2.42,0.64h1.34c0.85,0,1.69-0.21,2.44-0.64c0.74-0.45,1.33-1.09,1.7-1.85
		l9.75-18.87c0,0.14,0,0.27,0,0.4v25.37h10.26V50l-8.33,0C318.14,50,317.75,50.01,317.42,50.03z"/>
	<path class="st1" d="M266.8,71.25c0.52-0.27,1.02-0.57,1.5-0.9c0.92-0.63,1.74-1.4,2.43-2.29c0.63-0.82,1.11-1.74,1.41-2.73
		c0.3-0.97,0.45-1.98,0.45-2.99c0.02-1.75-0.29-3.46-0.96-5.09c-0.66-1.57-1.74-2.94-3.12-3.96c-1.61-1.16-3.41-1.98-5.34-2.44
		c-2.53-0.61-5.14-0.89-7.73-0.84h-16.49v44.31h17.84c0.12,0,0.24,0,0.36,0c2.28,0,4.54-0.34,6.72-1.02
		c1.94-0.6,3.72-1.57,5.29-2.87c1.4-1.18,2.54-2.69,3.3-4.37c0.76-1.71,1.14-3.52,1.12-5.35c0.1-2.36-0.68-4.65-2.25-6.5
		C270.05,72.88,268.5,71.88,266.8,71.25z M260.82,61.2c0.25,0.73,0.37,1.5,0.34,2.33c0.03,0.77-0.12,1.55-0.42,2.25
		c-0.24,0.53-0.63,0.98-1.12,1.29c-0.61,0.37-1.27,0.61-1.98,0.72c-0.94,0.16-1.89,0.24-2.84,0.23h-4.42v-9.08l5.08,0
		c0.92-0.02,1.84,0.07,2.74,0.25c0.61,0.12,1.2,0.38,1.68,0.73C260.32,60.26,260.64,60.7,260.82,61.2z M259.5,76.48
		c0.62,0.16,1.2,0.45,1.68,0.84c0.39,0.33,0.67,0.76,0.83,1.24c0.19,0.61,0.28,1.24,0.27,1.89c0,0.62-0.08,1.24-0.24,1.84
		c-0.15,0.55-0.42,1.06-0.79,1.47c-0.46,0.49-1.04,0.87-1.66,1.1c-0.95,0.34-1.94,0.49-2.94,0.46l-6.27,0v-9.17h6.2
		C257.58,76.13,258.55,76.24,259.5,76.48z"/>
</g>
<g>
	<path id="Path_1265_3_" class="st3" d="M105.32,49.28l6.51,5.31l1.96,5.37l3.02,7.93v11.86l-0.19,6.79l7.11-2.01l6.23-4.44
		l2.43-3.83l0.19-3.74l-0.74-3.29l-0.79-8.18l-5.44-6.55l-7.15-5.54l-1.31-1.14l-5.9-0.97L105.32,49.28z"/>
	<path id="Path_1266_3_" class="st4" d="M114.77,48.06c0,0,13.62,14.68,15.39,25.94c0.44,2.82-8.18,6.82-10.86,9.69l6.34-0.8
		l4.53-2.08l2.49-5.92l-2.67-7.53l-2.57-7.58c-0.75-1.36-1.79-2.54-3.04-3.46c-1.47-0.72-4.11-4.43-4.11-4.43L114.77,48.06z"/>
	<path id="Path_1268_3_" class="st3" d="M161.63,88.49l-9.27-4.26l-5.56-4.57l-2.1-4.17l0.43-2.24l1.69-5.38l4.61-9.23l3.49-4.23
		l4.39-6.13l5.05-2.44l4.03,1.23l2.41,1.29c0,0-6.86,7.53-7.15,7.62c-1.65,2.34-3.14,4.79-4.46,7.33c-0.08,0.48-1.05,8.2-1.05,8.2
		l1.79,7.97l2.18,6.3L161.63,88.49z"/>
	<path id="Path_1269_3_" class="st4" d="M162.8,48.06c0,0-13.46,15.55-15.23,26.82c-0.45,2.82,10.7,9.02,13.39,11.89l-9.01-3.87
		l-4.53-2.08l-2.49-5.92l2.67-7.53l2.57-7.58c0.75-1.36,1.79-2.54,3.04-3.46c1.47-0.72,4.11-4.43,4.11-4.43L162.8,48.06z"/>
	<g id="Path_1277_3_">
		
			<rect x="107.22" y="48.37" transform="matrix(0.8681 -0.4964 0.4964 0.8681 -9.6939 61.701)" class="st5" width="8.08" height="1.45"/>
	</g>
	<path id="Path_1300_3_" class="st6" d="M145.92,55.06c0.26,4.1-2.86,7.63-6.96,7.89c-4.1,0.26-7.63-2.86-7.89-6.96
		c-0.26-4.1,2.86-7.63,6.96-7.89c0.16-0.01,0.31-0.01,0.47-0.01C142.47,47.97,145.79,51.09,145.92,55.06"/>
	<path class="st5" d="M183.97,43.27c-5.13,0-9.94,1.37-14.1,3.76l-2.59-0.95l-0.15-0.05c-0.69-0.15-1.39-0.23-2.1-0.23
		c-2.67,0-4.91,1.12-6.52,2.28c-2,0.88-4.09,1.55-6.23,1.97c0,0-3.69,0.81-9.48-2.69l0,0.01c-1.26-0.76-2.72-1.2-4.3-1.2
		c-1.79,0-3.44,0.57-4.8,1.53c-3.15,1.5-6.87,1.85-9.57,1.86c-1.99-0.27-3.91-0.92-5.67-1.9c-1.54-0.99-3.55-1.84-5.88-1.84
		c-0.71,0-1.41,0.08-2.1,0.23l-2.48,0.91c-0.6-0.23-1.85-0.71-3.25-1.25c-3.5-1.55-7.38-2.42-11.45-2.42
		c-15.66,0-28.35,12.69-28.35,28.35c0,15.66,12.69,28.35,28.35,28.35c6.52-0.01,12.51-2.21,17.3-5.91l-0.02,0.03l7.85-5.35
		l10.54-6.17l0.05-0.03c3.87-2.55,5.67-7.3,4.45-11.78l-0.03-0.09c-0.23-0.56-0.47-1.11-0.71-1.66c0.18-0.84,0.42-1.61,0.65-2.26
		c1.3,0.4,3.11,0.65,5.13,0.65c2.43,0,4.57-0.36,5.85-0.91c0.24,0.91,0.38,1.84,0.42,2.79c-0.2,0.47-0.41,0.94-0.6,1.41
		c-1.68,4.52,0.23,9.59,4.48,11.88l12.95,7.59l2.76,1.92c5.09,4.88,12,7.89,19.62,7.89c15.65-0.02,28.34-12.7,28.35-28.35
		C212.32,55.96,199.63,43.27,183.97,43.27z M131.32,75.13l-0.02,0.01c0,0.03-0.01,0.07-0.01,0.11c-0.08,0.38-0.19,0.75-0.32,1.09
		l-9.83,5.92c-0.39-0.44-0.55-1.04-0.6-1.61l10.9-6.56C131.42,74.45,131.39,74.8,131.32,75.13z M120.31,52.73l1.1,1.69l-4.01,2.3
		c-0.36-0.57-0.73-1.13-1.13-1.68L120.31,52.73z M122.21,55.64l1.1,1.69l-4.27,2.44c-0.28-0.61-0.59-1.21-0.91-1.8L122.21,55.64z
		 M124.11,58.55l1.1,1.69l-4.89,2.8c-0.21-0.65-0.44-1.29-0.7-1.92L124.11,58.55z M120.73,64.47l5.28-3.02l0.7,1.07
		c0.12,0.21,0.24,0.43,0.36,0.65l-5.88,3.36C121.06,65.83,120.9,65.15,120.73,64.47z M121.26,76.14l9.53-5.46
		c0.11,0.27,0.23,0.53,0.35,0.8c0.09,0.33,0.17,0.65,0.22,0.97l-10.67,6.42C120.92,77.98,121.11,77.06,121.26,76.14z M130.22,69.34
		l-8.72,4.99c0.08-0.79,0.13-1.59,0.14-2.4l7.72-4.42C129.65,68.12,129.94,68.73,130.22,69.34z M121.6,70.28
		c-0.03-0.75-0.09-1.49-0.18-2.22l6.35-3.64c0.32,0.59,0.63,1.19,0.93,1.78L121.6,70.28z M119.42,51.57l-4.04,2.31
		c-0.43-0.53-0.88-1.05-1.34-1.55l3.77-2.16C118.52,50.69,119.07,51.2,119.42,51.57z M110.89,48.45c1.31,0,2.63,0.03,3.94,0.14
		c0.58,0.18,1.11,0.43,1.61,0.7L113,51.26c-0.93-0.9-1.9-1.74-2.95-2.5L110.89,48.45z M93.29,94.71
		c-12.75,0-23.09-10.33-23.09-23.09c0-12.75,10.33-23.09,23.09-23.09c12.74,0.01,23.07,10.34,23.09,23.09
		C116.38,84.38,106.04,94.71,93.29,94.71z M123.02,82.82l5.29-3.19c-2.04,1.72-4.37,3-4.37,3C123.6,82.74,123.3,82.79,123.02,82.82z
		 M144.4,54.5c0,3.26-2.65,5.91-5.91,5.9s-5.91-2.65-5.9-5.91c0-3.26,2.65-5.91,5.91-5.9C141.76,48.6,144.4,51.24,144.4,54.5
		C144.4,54.5,144.4,54.5,144.4,54.5z M166.52,48.39l0.8,0.29c-0.08,0.06-0.16,0.12-0.24,0.18l-0.93-0.53
		C166.27,48.35,166.4,48.36,166.52,48.39z M163.4,48.42l2.45,1.4c-0.48,0.4-0.94,0.81-1.39,1.24l-3.21-1.83
		C161.91,48.89,162.62,48.6,163.4,48.42z M159.86,50.1l3.54,2.02c-0.47,0.5-0.92,1.01-1.36,1.54l-3.79-2.17
		C158.62,51.12,159.17,50.61,159.86,50.1z M155.45,55.56l3.81,2.18c-0.33,0.59-0.64,1.18-0.93,1.79l-3.99-2.28L155.45,55.56z
		 M153.55,58.47l4.19,2.4c-0.26,0.64-0.51,1.3-0.73,1.96l-4.58-2.65L153.55,58.47z M150.9,62.53l0.74-1.14l4.95,2.87
		c-0.18,0.66-0.34,1.32-0.46,1.99l-5.54-3.17C150.69,62.9,150.79,62.71,150.9,62.53z M149.88,64.34l6.01,3.44
		c-0.1,0.73-0.17,1.46-0.22,2.2l-6.73-3.85C149.24,65.53,149.55,64.94,149.88,64.34z M148.29,67.43l7.33,4.19
		c0,0.8,0.04,1.59,0.11,2.38l-8.3-4.75C147.7,68.64,147.99,68.03,148.29,67.43z M146.44,71.53c0.13-0.32,0.27-0.63,0.41-0.94
		l9.08,5.2c0.14,0.92,0.32,1.81,0.54,2.7l-10.26-6.17C146.27,72.05,146.35,71.79,146.44,71.53z M146.27,76
		c-0.19-0.68-0.28-1.39-0.26-2.11l11.06,6.65c0.29,0.86,0.6,1.71,0.97,2.53L146.27,76z M149.84,80.46
		c-0.96-0.52-1.76-1.23-2.38-2.05l11.8,7.09c0.13,0.24,0.26,0.48,0.4,0.72L149.84,80.46z M156.24,54.34l1.1-1.69l3.8,2.17
		c-0.4,0.54-0.78,1.1-1.14,1.67L156.24,54.34z M183.97,94.71c-12.75,0-23.09-10.34-23.09-23.09c0-12.75,10.34-23.09,23.09-23.09
		c12.74,0.02,23.07,10.34,23.09,23.09C207.05,84.38,196.72,94.71,183.97,94.71z"/>
	<path id="Path_1302_3_" class="st0" d="M116.85,71.62c0,13.01-10.55,23.56-23.56,23.56S69.74,84.63,69.74,71.62
		c0-13.01,10.55-23.56,23.56-23.56c0,0,0,0,0,0C106.31,48.07,116.85,58.61,116.85,71.62C116.85,71.62,116.85,71.62,116.85,71.62"/>
	<path id="Path_1303_3_" class="st0" d="M116.85,71.63c0,13.01-10.55,23.56-23.56,23.56S69.74,84.64,69.74,71.63
		c0-13.01,10.55-23.56,23.56-23.56c0,0,0,0,0,0C106.31,48.07,116.85,58.61,116.85,71.63C116.85,71.62,116.85,71.63,116.85,71.63"/>
	<path id="Path_1303_2_" class="st0" d="M207.53,71.62c0,13.01-10.55,23.56-23.56,23.56s-23.56-10.55-23.56-23.56
		c0-13.01,10.55-23.56,23.56-23.56c0,0,0,0,0,0C196.98,48.07,207.53,58.61,207.53,71.62C207.53,71.62,207.53,71.62,207.53,71.62"/>
	<path id="Path_1304_3_" class="st3" d="M75.46,63.52c0,0,0.09-0.35,0.28-0.94c0.28-0.82,0.64-1.61,1.07-2.37
		c0.28-0.51,0.59-1,0.94-1.47c0.38-0.53,0.79-1.04,1.23-1.52c0.47-0.52,0.97-1.01,1.51-1.46c0.55-0.47,1.13-0.91,1.74-1.3
		c0.61-0.39,1.25-0.74,1.91-1.05c0.63-0.31,1.29-0.56,1.96-0.77c0.63-0.2,1.26-0.36,1.91-0.47c0.57-0.1,1.14-0.18,1.72-0.23
		c1.19-0.13,2.39-0.09,3.57,0.11c0,0-1.41,0.24-3.4,0.8c-1.12,0.31-2.23,0.69-3.31,1.12C86,54.2,85.42,54.5,84.83,54.8
		c-1.18,0.63-2.3,1.35-3.36,2.17c-0.52,0.41-1.03,0.82-1.49,1.26s-0.91,0.86-1.31,1.28c-0.41,0.42-0.77,0.84-1.1,1.24
		c-0.67,0.8-1.18,1.48-1.54,1.98C75.66,63.22,75.45,63.52,75.46,63.52"/>
	<path id="Path_1305_3_" class="st3" d="M166.15,63.67c0,0,0.09-0.34,0.29-0.94c0.11-0.36,0.25-0.71,0.41-1.05
		c0.19-0.46,0.41-0.9,0.66-1.32c0.28-0.51,0.59-1,0.94-1.47c0.38-0.53,0.79-1.04,1.24-1.52c0.47-0.52,0.98-1,1.52-1.45
		c0.56-0.46,1.14-0.9,1.74-1.3c0.61-0.38,1.25-0.74,1.9-1.05c0.63-0.31,1.28-0.57,1.95-0.79c0.62-0.21,1.26-0.37,1.9-0.49
		c0.3-0.06,0.6-0.12,0.89-0.17l0.84-0.08c0.49-0.05,0.98-0.07,1.47-0.05c0.38-0.01,0.75,0.01,1.13,0.06
		c0.62,0.07,0.97,0.13,0.97,0.13s-0.35,0.08-0.95,0.2c-0.3,0.05-0.67,0.13-1.07,0.23c-0.4,0.1-0.88,0.2-1.37,0.35
		s-1.03,0.3-1.58,0.5c-0.56,0.17-1.12,0.44-1.71,0.66c-0.57,0.27-1.17,0.53-1.75,0.85c-0.59,0.31-1.17,0.64-1.73,1.01
		c-0.57,0.36-1.11,0.74-1.64,1.16c-0.53,0.4-1.03,0.82-1.5,1.24c-0.45,0.44-0.92,0.85-1.31,1.28c-0.4,0.43-0.79,0.83-1.11,1.23
		c-0.32,0.4-0.63,0.76-0.89,1.09c-0.25,0.34-0.49,0.63-0.66,0.89C166.37,63.38,166.15,63.67,166.15,63.67"/>
	<path id="Path_1306_3_" class="st3" d="M133.69,52.99c0.09-0.34,0.22-0.66,0.4-0.96c0.18-0.31,0.39-0.6,0.63-0.87
		c0.29-0.3,0.6-0.57,0.94-0.8c0.65-0.42,1.4-0.67,2.17-0.74c0.25-0.03,0.5-0.03,0.75,0l0.28,0.04l-0.28,0.05
		c-0.18,0.02-0.42,0.1-0.71,0.17c-0.33,0.09-0.64,0.2-0.95,0.33c-0.35,0.15-0.69,0.33-1.01,0.55c-0.33,0.2-0.63,0.43-0.91,0.7
		c-0.25,0.23-0.49,0.47-0.7,0.73c-0.16,0.18-0.31,0.38-0.45,0.58L133.69,52.99"/>
	<g>
		<linearGradient id="SVGID_1_" gradientUnits="userSpaceOnUse" x1="88.3576" y1="73.4496" x2="88.3576" y2="65.1809">
			<stop  offset="0" style="stop-color:#BCBEC0"/>
			<stop  offset="0.1045" style="stop-color:#AEB0B2"/>
			<stop  offset="0.4027" style="stop-color:#8B8C8F"/>
			<stop  offset="0.646" style="stop-color:#757679"/>
			<stop  offset="0.8023" style="stop-color:#6D6E71"/>
		</linearGradient>
		<path class="st7" d="M90.13,68.46l-1.63-3.66c-0.06-0.13-0.24-0.13-0.3,0l-1.63,3.66h1.03v5.29c0,0.09,0.07,0.16,0.16,0.16h1.18
			c0.09,0,0.16-0.07,0.16-0.16v-5.29H90.13z"/>
		
			<linearGradient id="SVGID_00000086666532983322613220000013572398906763042745_" gradientUnits="userSpaceOnUse" x1="80.366" y1="74.493" x2="80.366" y2="67.2964">
			<stop  offset="0" style="stop-color:#BCBEC0"/>
			<stop  offset="0.1045" style="stop-color:#AEB0B2"/>
			<stop  offset="0.4027" style="stop-color:#8B8C8F"/>
			<stop  offset="0.646" style="stop-color:#757679"/>
			<stop  offset="0.8023" style="stop-color:#6D6E71"/>
		</linearGradient>
		<path style="fill:url(#SVGID_00000086666532983322613220000013572398906763042745_);" d="M82.14,70.72l-1.63-3.68
			c-0.05-0.12-0.23-0.12-0.28,0l-1.63,3.68h1.03v3.94c0,0.09,0.07,0.15,0.15,0.15h1.19c0.09,0,0.15-0.07,0.15-0.15v-3.94H82.14z"/>
		
			<linearGradient id="SVGID_00000153696464972939159960000003841889649137828742_" gradientUnits="userSpaceOnUse" x1="96.6214" y1="72.5502" x2="96.6214" y2="62.4545">
			<stop  offset="0" style="stop-color:#BCBEC0"/>
			<stop  offset="0.1045" style="stop-color:#AEB0B2"/>
			<stop  offset="0.4027" style="stop-color:#8B8C8F"/>
			<stop  offset="0.646" style="stop-color:#757679"/>
			<stop  offset="0.8023" style="stop-color:#6D6E71"/>
		</linearGradient>
		<path style="fill:url(#SVGID_00000153696464972939159960000003841889649137828742_);" d="M98.4,65.5l-1.62-3.65
			c-0.06-0.13-0.25-0.13-0.31,0l-1.62,3.65h1.03v7.59c0,0.09,0.08,0.17,0.17,0.17h1.16c0.09,0,0.17-0.08,0.17-0.17V65.5H98.4z"/>
		
			<linearGradient id="SVGID_00000034773297471855182930000009262764365967731107_" gradientUnits="userSpaceOnUse" x1="104.8628" y1="72.1943" x2="104.8628" y2="60.1372">
			<stop  offset="0" style="stop-color:#BCBEC0"/>
			<stop  offset="0.1045" style="stop-color:#AEB0B2"/>
			<stop  offset="0.4027" style="stop-color:#8B8C8F"/>
			<stop  offset="0.646" style="stop-color:#757679"/>
			<stop  offset="0.8023" style="stop-color:#6D6E71"/>
		</linearGradient>
		<path style="fill:url(#SVGID_00000034773297471855182930000009262764365967731107_);" d="M105.01,59.84
			c-0.06-0.13-0.23-0.13-0.29,0l-1.63,3.67h1.03v9.06c0,0.09,0.07,0.16,0.16,0.16h1.18c0.09,0,0.16-0.07,0.16-0.16v-9.06h1.03
			L105.01,59.84z"/>
	</g>
	<g>
		<defs>
			<path id="SVGID_00000078016672261745286190000011957233498729154216_" d="M102.29,72.19c-5.69,0.37-11.19,0.8-16.41,1.26
				c-5.21,0.5-10.13,1-14.66,1.58l-1.22,0.16c1.72,11.32,11.49,19.99,23.29,19.99c13.01,0,23.56-10.55,23.56-23.56c0,0,0,0,0,0
				c0-0.06,0-0.12,0-0.17C111.9,71.64,107.02,71.86,102.29,72.19z"/>
		</defs>
		<clipPath id="SVGID_00000148620266205939480010000003923338214491072950_">
			<use xlink:href="#SVGID_00000078016672261745286190000011957233498729154216_"  style="overflow:visible;"/>
		</clipPath>
		
			<linearGradient id="SVGID_00000023981189914165946710000010143882253405600911_" gradientUnits="userSpaceOnUse" x1="93.4289" y1="96.3251" x2="93.4289" y2="69.8797">
			<stop  offset="0.2677" style="stop-color:#D1D3D4"/>
			<stop  offset="0.41" style="stop-color:#CBCDCE"/>
			<stop  offset="0.5945" style="stop-color:#BBBDBF"/>
			<stop  offset="0.8013" style="stop-color:#A0A2A5"/>
			<stop  offset="1" style="stop-color:#808285"/>
		</linearGradient>
		
			<rect x="66.8" y="69.88" style="clip-path:url(#SVGID_00000148620266205939480010000003923338214491072950_);fill:url(#SVGID_00000023981189914165946710000010143882253405600911_);" width="53.25" height="26.45"/>
	</g>
	<g>
		<defs>
			<path id="Path_1303_1_" d="M207.53,71.63c0,13.01-10.55,23.56-23.56,23.56s-23.56-10.55-23.56-23.56
				c0-13.01,10.55-23.56,23.56-23.56c0,0,0,0,0,0C196.98,48.07,207.53,58.61,207.53,71.63C207.53,71.62,207.53,71.63,207.53,71.63"
				/>
		</defs>
		<clipPath id="Path_1303_00000118360384480956946500000003775677670740319673_">
			<use xlink:href="#Path_1303_1_"  style="overflow:visible;"/>
		</clipPath>
		
			<linearGradient id="SVGID_00000044149451012666117350000006809962726221644214_" gradientUnits="userSpaceOnUse" x1="183.2656" y1="75.2519" x2="183.2656" y2="59.7261" gradientTransform="matrix(1.0583 0.0499 -0.0509 1.0804 -6.423 -13.9787)">
			<stop  offset="0" style="stop-color:#BCBEC0"/>
			<stop  offset="0.1045" style="stop-color:#AEB0B2"/>
			<stop  offset="0.4027" style="stop-color:#8B8C8F"/>
			<stop  offset="0.646" style="stop-color:#757679"/>
			<stop  offset="0.8023" style="stop-color:#6D6E71"/>
		</linearGradient>
		
			<path style="clip-path:url(#Path_1303_00000118360384480956946500000003775677670740319673_);fill:url(#SVGID_00000044149451012666117350000006809962726221644214_);" d="
			M159.08,71.91l5.16-4.46c0.52-0.45,1.28-0.45,1.8-0.01l3.17,2.69c0.49,0.42,1.2,0.44,1.72,0.05l7.36-5.5
			c0.52-0.39,1.24-0.36,1.73,0.06l5.51,4.76c0.5,0.44,1.25,0.45,1.77,0.03l12.42-9.95c0.57-0.46,1.41-0.39,1.89,0.16l7.33,8.22
			c0.24,0.27,0.37,0.62,0.35,0.98l-0.32,6.8c-0.04,0.77-0.69,1.36-1.46,1.31l-47.6-2.73c-0.79-0.05-1.37-0.74-1.29-1.52l0,0
			C158.65,72.46,158.82,72.14,159.08,71.91z"/>
	</g>
	<g>
		<defs>
			<path id="SVGID_00000129886439688559827270000015955871326998578100_" d="M174.97,72.19c5.69,0.37,11.19,0.8,16.41,1.26
				c5.21,0.5,10.13,1,14.66,1.58l1.22,0.16c-1.72,11.32-11.49,19.99-23.29,19.99c-13.01,0-23.56-10.55-23.56-23.56c0,0,0,0,0,0
				c0-0.06,0-0.12,0-0.17C165.36,71.64,170.24,71.86,174.97,72.19z"/>
		</defs>
		<clipPath id="SVGID_00000142860428650488566510000005591412348510845314_">
			<use xlink:href="#SVGID_00000129886439688559827270000015955871326998578100_"  style="overflow:visible;"/>
		</clipPath>
		
			<linearGradient id="SVGID_00000161591326732243702340000012799019639319241893_" gradientUnits="userSpaceOnUse" x1="117.7642" y1="96.3224" x2="117.7642" y2="69.877" gradientTransform="matrix(-1 0 0 1 301.5983 0)">
			<stop  offset="0.2677" style="stop-color:#D1D3D4"/>
			<stop  offset="0.41" style="stop-color:#CBCDCE"/>
			<stop  offset="0.5945" style="stop-color:#BBBDBF"/>
			<stop  offset="0.8013" style="stop-color:#A0A2A5"/>
			<stop  offset="1" style="stop-color:#808285"/>
		</linearGradient>
		
			<polygon style="clip-path:url(#SVGID_00000142860428650488566510000005591412348510845314_);fill:url(#SVGID_00000161591326732243702340000012799019639319241893_);" points="
			157.21,96.32 210.46,96.32 210.46,69.88 157.21,69.88 		"/>
	</g>
</g>
</svg>
