<?xml version="1.0" encoding="utf-8"?>
<!-- Generator: Adobe Illustrator 26.0.3, SVG Export Plug-In . SVG Version: 6.00 Build 0)  -->
<svg version="1.1" id="Layer_1" xmlns="http://www.w3.org/2000/svg" xmlns:xlink="http://www.w3.org/1999/xlink" x="0px" y="0px"
	 viewBox="0 0 417.93 192.28" style="enable-background:new 0 0 417.93 192.28;" xml:space="preserve">
<style type="text/css">
	.st0{fill:#FFFFFF;}
	.st1{fill:#17336B;}
	.st2{fill:#C3E532;}
	.st3{fill:#CCCCCC;}
	.st4{fill:#999999;}
	.st5{fill:#1E3C72;}
	.st6{fill:#E6E6E6;}
	.st7{fill:url(#SVGID_1_);}
	.st8{fill:url(#SVGID_00000049935142990624740760000000299267277473650102_);}
	.st9{fill:url(#SVGID_00000116919254448020190510000009533552538398749352_);}
	.st10{fill:url(#SVGID_00000002363351880724027440000010151752843306182532_);}
	
		.st11{clip-path:url(#SVGID_00000091732125963759281400000015037212112651507358_);fill:url(#SVGID_00000100368518900796968720000009841712811441711787_);}
	
		.st12{clip-path:url(#Path_1303_00000020370223655079274670000011047602133919985560_);fill:url(#SVGID_00000093875694169815481490000018367083375673510802_);}
	
		.st13{clip-path:url(#SVGID_00000115509825167323139200000008945522328028668306_);fill:url(#SVGID_00000155838222216566932930000000227497898707171483_);}
	.st14{fill:url(#SVGID_00000139980315390787242810000017273662515937245856_);}
	.st15{fill:url(#SVGID_00000105408369996237429010000011290451379504358583_);}
	.st16{fill:url(#SVGID_00000070100855821359871720000007924983704053316009_);}
	.st17{fill:url(#SVGID_00000132782553515980581480000007325341968005805451_);}
	
		.st18{clip-path:url(#SVGID_00000174597845686260973050000011460931575816115339_);fill:url(#SVGID_00000070841618572191215290000009279611839738325664_);}
	
		.st19{clip-path:url(#Path_1303_00000056418125779826458100000000627882651807276991_);fill:url(#SVGID_00000120531702965408280010000007940900097140583081_);}
	
		.st20{clip-path:url(#SVGID_00000067940489499719741280000002217817161809278904_);fill:url(#SVGID_00000056399953449329107840000008246194630592629891_);}
	.st21{fill:url(#SVGID_00000150821190936526302180000013973668836435763596_);}
	.st22{fill:url(#SVGID_00000009576745396443371020000011092885043340288691_);}
	.st23{fill:url(#SVGID_00000008844855780765028600000007457287782628033970_);}
	.st24{fill:url(#SVGID_00000109017482253536659370000008747055301992863397_);}
	
		.st25{clip-path:url(#SVGID_00000026134073844498455600000000404650609336003006_);fill:url(#SVGID_00000103984182931846904270000000408740908035086003_);}
	
		.st26{clip-path:url(#Path_1303_00000052101133048424869630000016065416252381244342_);fill:url(#SVGID_00000152255916533600848180000012104202411934128049_);}
	
		.st27{clip-path:url(#SVGID_00000000910312448891495530000016170303510474021035_);fill:url(#SVGID_00000178163735934849697310000014836004869729026740_);}
	.st28{fill:url(#SVGID_00000171709490754620808820000001279005729960636058_);}
	.st29{fill:url(#SVGID_00000150103489741546927310000001145167187034158511_);}
	.st30{fill:url(#SVGID_00000135678289768272147850000017762172947235301799_);}
	.st31{fill:url(#SVGID_00000085968189421073803140000009083331567249990319_);}
	
		.st32{clip-path:url(#SVGID_00000133505259905381112020000006405928629857242794_);fill:url(#SVGID_00000101090986290154966610000001657568981800727692_);}
	
		.st33{clip-path:url(#Path_1303_00000109708772794813573360000012291108662504434573_);fill:url(#SVGID_00000072269717035455716280000015595870055266579897_);}
	
		.st34{clip-path:url(#SVGID_00000117665604781274639730000002849874034493671612_);fill:url(#SVGID_00000052798800981393575870000007374332224072546990_);}
	.st35{fill:none;stroke:#17336B;stroke-width:0.75;stroke-miterlimit:10;}
	.st36{fill:url(#SVGID_00000111899600030384699310000013910194631624806023_);}
	.st37{fill:url(#SVGID_00000025434890565577675030000011451043265706897031_);}
	.st38{fill:url(#SVGID_00000151514086148662745250000012595743820841058712_);}
	.st39{fill:url(#SVGID_00000100371963294829105680000015181557917617999252_);}
	
		.st40{clip-path:url(#SVGID_00000084487879304218819330000007307221321553888958_);fill:url(#SVGID_00000093152229040604610620000004096743194990663096_);}
	
		.st41{clip-path:url(#Path_1303_00000113338529408074197580000015344258707704335543_);fill:url(#SVGID_00000178174395578301870570000005386568952009381821_);}
	
		.st42{clip-path:url(#SVGID_00000015332674634943280890000013330351252513915055_);fill:url(#SVGID_00000096769400283434433840000015081753684245063336_);}
	.st43{fill:none;stroke:#17336B;stroke-width:0.8092;stroke-miterlimit:10;}
	.st44{fill:url(#SVGID_00000132786182030217305490000014584942530631892636_);}
	.st45{fill:url(#SVGID_00000003796004835645671030000017544167454657143192_);}
	.st46{fill:url(#SVGID_00000106146740559829363620000017202197120860727485_);}
	.st47{fill:url(#SVGID_00000172411582768212229730000013461929207686758585_);}
	
		.st48{clip-path:url(#SVGID_00000114785865873520439630000017024777267970865061_);fill:url(#SVGID_00000155839107147662451690000015643570291723499452_);}
	
		.st49{clip-path:url(#Path_1303_00000021099279375506115400000012090467888483371699_);fill:url(#SVGID_00000094584126692342905120000008010805329896945536_);}
	
		.st50{clip-path:url(#SVGID_00000024702260613781473290000011820651939508625070_);fill:url(#SVGID_00000099662640599563954420000014504821125317666970_);}
	.st51{fill:none;stroke:#17336B;stroke-width:0.4679;stroke-miterlimit:10;}
	.st52{fill:url(#SVGID_00000095316435859186614840000004599929418246600616_);}
	.st53{fill:url(#SVGID_00000037667030688571171490000004493502032799974281_);}
	.st54{fill:url(#SVGID_00000114771154039152559640000015044924791080322956_);}
	.st55{fill:url(#SVGID_00000070824070537127067010000000287748754030942888_);}
	
		.st56{clip-path:url(#SVGID_00000044873578331229263530000005829557509616798850_);fill:url(#SVGID_00000150806786617411558500000010222121041098250655_);}
	
		.st57{clip-path:url(#Path_1303_00000089575400941566529300000013127681555813912208_);fill:url(#SVGID_00000067222500520342949950000009848146250916313234_);}
	
		.st58{clip-path:url(#SVGID_00000152981247389221870090000010379991225586131879_);fill:url(#SVGID_00000070106728812400463850000012816853938720401051_);}
	.st59{fill:url(#SVGID_00000178918893925556656820000013800744288638680507_);}
	.st60{fill:url(#SVGID_00000005249649835982633030000000919294778583277966_);}
	.st61{fill:url(#SVGID_00000182529653110126172000000013344107723845865400_);}
	.st62{fill:url(#SVGID_00000020358639305034955010000013936468726891252867_);}
	
		.st63{clip-path:url(#SVGID_00000042010893320202226310000010858738334463121064_);fill:url(#SVGID_00000044869822427579660230000000886294169959903933_);}
	
		.st64{clip-path:url(#Path_1303_00000163031820393265826300000015970191016541839545_);fill:url(#SVGID_00000143607082337756864710000003341869708320116389_);}
	
		.st65{clip-path:url(#SVGID_00000140732859834563801510000002592126312758796941_);fill:url(#SVGID_00000145034677780808613480000003640793542496441504_);}
	.st66{fill:none;stroke:#17336B;stroke-width:0.5091;stroke-miterlimit:10;}
</style>
<path class="st2" d="M378.75,83.52c-2.38-0.56-5.64-1.33-9.58-2.14c-4.62-1-10.36-2.14-17.06-3.4c-5.85-1.1-13.67-2.51-22.25-3.75
	c-7.15-1.09-15.31-2.19-26.48-3.55c-9.01-1.01-19.21-2.16-29.68-2.9c-12.63-0.97-22.46-1.54-31.84-1.86
	c-11.91-0.49-23.85-0.6-32.93-0.65c-12.39,0.08-23.16,0.31-32.92,0.72c-10.05,0.39-20.46,1.03-31.83,1.94
	c-10.2,0.75-19.86,1.83-29.68,2.97c-11.21,1.39-19.37,2.5-26.46,3.6c-8.64,1.26-16.43,2.7-22.25,3.81
	c-6.79,1.29-12.53,2.45-17.05,3.44c-3.9,0.81-7.14,1.58-9.5,2.15l-5.05,1.2l-0.18,0.03l0,0.01l-0.04,0.01l0.25,1.21l0.04-0.01
	l0,0.01l14.87-2.53c4.49-0.77,10.09-1.63,17.13-2.64l2.28-0.32c2.65-0.37,5.39-0.76,8.27-1.11l11.73-1.51
	c7.09-0.9,15.24-1.78,26.42-2.85c9.95-0.88,19.9-1.64,29.58-2.27c9.78-0.67,19.73-1.1,31.67-1.54c9.71-0.36,20.42-0.54,32.72-0.56
	c9.84,0.01,21.43,0.08,32.73,0.49c3.12,0.08,6.26,0.22,9.3,0.34c2.26,0.1,4.5,0.19,6.73,0.27c1.78,0.1,3.56,0.19,5.32,0.27
	c3.4,0.17,6.92,0.34,10.32,0.59c11.07,0.68,21.63,1.54,29.58,2.2c11.18,1.05,19.33,1.9,26.44,2.79c2.99,0.34,5.88,0.72,8.68,1.09
	l3.04,0.4c3.24,0.39,6.29,0.81,9.25,1.22l1.31,0.18c7.15,1,12.75,1.85,17.14,2.59l11.02,1.83l3.9,0.67l0.25-1.22L378.75,83.52z"/>
<g>
	<path class="st0" d="M261.14,112.24h-10.83l-16.56,42.78l8.55,0c0.89,0.04,1.77-0.25,2.47-0.78c0.6-0.45,1.07-1.05,1.38-1.79
		l2.26-6.69h14.63l2.29,6.74c0.3,0.71,0.79,1.33,1.42,1.81c0.67,0.47,1.48,0.72,2.26,0.72c0.06,0,0.12,0,0.17,0h8.52L261.14,112.24z
		 M255.5,124.92c0.08-0.23,0.15-0.47,0.23-0.72c0.07,0.23,0.15,0.46,0.22,0.68c0.33,0.99,0.64,1.86,0.91,2.55l3.49,10.32h-9.21
		l3.45-10.23C254.87,126.78,255.18,125.9,255.5,124.92z"/>
	<path class="st0" d="M222.15,112.26c-0.36,0.02-0.72,0.09-1.07,0.22c-0.35,0.14-0.67,0.34-0.94,0.62c-0.29,0.3-0.52,0.65-0.7,1.01
		l-10.59,20.84c-0.4,0.74-0.79,1.52-1.15,2.33c-0.11,0.25-0.22,0.5-0.33,0.76c-0.1-0.24-0.21-0.47-0.31-0.71
		c-0.35-0.78-0.73-1.55-1.11-2.27l-10.62-20.94c-0.18-0.37-0.42-0.71-0.72-1.03c-0.26-0.27-0.58-0.48-0.94-0.62
		c-0.34-0.13-0.7-0.2-1.05-0.21c-0.33-0.02-0.7-0.03-1.14-0.03h-8.06v42.78h9.95v-24.49c0-0.11,0-0.22,0-0.33l9.35,18.14
		c0.37,0.75,0.94,1.38,1.67,1.82c0.71,0.41,1.49,0.62,2.35,0.61h1.29c0.81,0.01,1.64-0.2,2.37-0.62c0.72-0.43,1.29-1.06,1.65-1.8
		l9.35-18.1c0,0.09,0,0.18,0,0.27v24.49h9.95v-42.78l-8.06-0.01C222.84,112.23,222.47,112.24,222.15,112.26z"/>
	<path class="st0" d="M173.42,132.76c0.48-0.25,0.95-0.54,1.4-0.84c0.89-0.61,1.69-1.36,2.35-2.22c0.61-0.8,1.07-1.68,1.37-2.64
		c0.29-0.94,0.44-1.92,0.43-2.88c0.02-1.69-0.29-3.34-0.92-4.92c-0.64-1.52-1.68-2.84-3.01-3.83c-1.56-1.12-3.29-1.92-5.16-2.36
		c-2.44-0.59-4.97-0.86-7.46-0.81l-15.94,0v42.78h17.23c0.12,0,0.23,0,0.35,0c2.2,0,4.38-0.33,6.49-0.99
		c1.88-0.58,3.6-1.52,5.12-2.78c1.36-1.14,2.46-2.6,3.19-4.22c0.73-1.65,1.1-3.41,1.08-5.18c0.1-2.28-0.66-4.5-2.17-6.28
		C176.52,134.33,175.04,133.37,173.42,132.76z M157.55,137.52h5.96c0.94-0.02,1.89,0.08,2.8,0.32c0.6,0.15,1.15,0.43,1.61,0.81
		c0.37,0.32,0.64,0.73,0.79,1.18c0.18,0.59,0.27,1.19,0.26,1.82c0,0.6-0.08,1.19-0.23,1.76c-0.14,0.52-0.41,1.02-0.76,1.41
		c-0.44,0.47-0.99,0.83-1.59,1.05c-0.91,0.32-1.86,0.47-2.83,0.44l-6.02,0V137.52z M167.57,123.08c0.24,0.71,0.35,1.45,0.33,2.24
		c0.03,0.74-0.12,1.49-0.4,2.16c-0.23,0.51-0.61,0.94-1.07,1.23c-0.58,0.35-1.22,0.59-1.9,0.69c-0.9,0.15-1.83,0.23-2.74,0.22h-4.24
		v-8.7l4.87,0c0.88-0.02,1.77,0.07,2.64,0.24c0.59,0.11,1.15,0.36,1.62,0.7C167.09,122.18,167.4,122.61,167.57,123.08z"/>
</g>
<g>
	<g>
		<path id="Path_1265_1_" class="st3" d="M172.85,41.04l7.03,5.73l2.11,5.79l3.26,8.55v12.8l-0.2,7.32l7.67-2.16l6.72-4.79
			l2.63-4.13l0.21-4.04l-0.8-3.55l-0.85-8.82l-5.87-7.07l-7.72-5.98l-1.42-1.22l-6.36-1.04L172.85,41.04z"/>
		<path id="Path_1266_1_" class="st4" d="M183.04,39.73c0,0,14.69,15.84,16.6,27.99c0.48,3.04-8.83,7.36-11.72,10.46l6.83-0.87
			l4.88-2.24l2.68-6.39l-2.89-8.12l-2.77-8.18c-0.81-1.47-1.93-2.74-3.28-3.74c-1.59-0.78-4.43-4.78-4.43-4.78L183.04,39.73z"/>
		<path id="Path_1268_1_" class="st3" d="M233.6,83.35l-10-4.59l-5.99-4.93l-2.27-4.49l0.47-2.41l1.82-5.8l4.97-9.96l3.77-4.56
			l4.74-6.61l5.45-2.64l4.35,1.33l2.6,1.4c0,0-7.4,8.12-7.71,8.22c-1.78,2.53-3.38,5.17-4.81,7.91c-0.09,0.52-1.13,8.84-1.13,8.84
			l1.93,8.6l2.35,6.8L233.6,83.35z"/>
		<path id="Path_1269_1_" class="st4" d="M234.87,39.73c0,0-14.52,16.77-16.43,28.94c-0.48,3.04,11.54,9.73,14.44,12.83l-9.72-4.17
			l-4.89-2.24l-2.68-6.39l2.89-8.12l2.77-8.18c0.81-1.47,1.93-2.74,3.28-3.74c1.59-0.78,4.43-4.78,4.43-4.78L234.87,39.73z"/>
		<g id="Path_1277_1_">
			
				<rect x="174.9" y="40.06" transform="matrix(0.8681 -0.4964 0.4964 0.8681 3.3709 94.3631)" class="st5" width="8.72" height="1.56"/>
		</g>
		<path id="Path_1300_1_" class="st6" d="M216.65,47.28c0.28,4.42-3.08,8.23-7.5,8.51c-4.42,0.28-8.23-3.08-8.51-7.5
			s3.08-8.23,7.5-8.51c0.17-0.01,0.34-0.02,0.5-0.02C212.93,39.63,216.51,42.99,216.65,47.28"/>
		<path class="st0" d="M257.7,34.56c-5.54,0-10.73,1.48-15.21,4.05l-2.8-1.03l-0.16-0.05c-0.74-0.17-1.5-0.25-2.27-0.25
			c-2.88,0-5.3,1.21-7.03,2.46c-2.16,0.95-4.41,1.67-6.72,2.12c0,0-3.98,0.88-10.23-2.9l0,0.01c-1.36-0.82-2.94-1.3-4.64-1.3
			c-1.93,0-3.71,0.61-5.17,1.65c-3.4,1.62-7.41,1.99-10.32,2c-2.15-0.3-4.22-1-6.12-2.05c-1.66-1.07-3.83-1.99-6.35-1.99
			c-0.76,0-1.52,0.09-2.27,0.25l-2.68,0.98c-0.65-0.25-1.99-0.77-3.5-1.35c-3.78-1.67-7.96-2.61-12.36-2.61
			c-16.89,0-30.59,13.69-30.59,30.59c0,16.89,13.69,30.59,30.59,30.59c7.03-0.01,13.5-2.39,18.66-6.38l-0.02,0.03l8.47-5.77
			l11.37-6.65l0.05-0.03c4.18-2.75,6.11-7.88,4.8-12.71l-0.03-0.1c-0.24-0.6-0.51-1.19-0.77-1.79c0.19-0.9,0.45-1.74,0.7-2.44
			c1.4,0.43,3.36,0.7,5.53,0.7c2.62,0,4.93-0.39,6.31-0.98c0.25,0.98,0.41,1.99,0.45,3.01c-0.22,0.51-0.44,1.01-0.65,1.52
			c-1.81,4.88,0.25,10.35,4.83,12.82l13.98,8.19l2.98,2.07c5.5,5.27,12.95,8.52,21.16,8.52c16.89-0.02,30.57-13.7,30.59-30.59
			C288.29,48.25,274.59,34.56,257.7,34.56z M200.9,68.93l-0.02,0.01c0,0.04-0.01,0.08-0.01,0.11c-0.09,0.41-0.21,0.81-0.35,1.18
			l-10.61,6.39c-0.42-0.47-0.6-1.13-0.64-1.74l11.76-7.08C201.01,68.2,200.97,68.57,200.9,68.93z M189.02,44.77l1.19,1.82
			l-4.33,2.48c-0.38-0.62-0.79-1.22-1.21-1.81L189.02,44.77z M191.07,47.9l1.19,1.82l-4.6,2.63c-0.31-0.66-0.64-1.31-0.99-1.94
			L191.07,47.9z M193.12,51.04l1.19,1.82l-5.28,3.02c-0.22-0.7-0.48-1.39-0.75-2.08L193.12,51.04z M189.47,57.43l5.69-3.26
			l0.75,1.15c0.13,0.23,0.26,0.47,0.39,0.7l-6.34,3.63C189.83,58.9,189.66,58.16,189.47,57.43z M190.05,70.02l10.28-5.89
			c0.12,0.29,0.25,0.57,0.37,0.86c0.1,0.36,0.18,0.71,0.23,1.05l-11.51,6.93C189.68,72,189.89,71.02,190.05,70.02z M199.71,62.68
			l-9.41,5.39c0.08-0.85,0.14-1.72,0.15-2.59l8.33-4.77C199.1,61.37,199.41,62.02,199.71,62.68z M190.42,63.7
			c-0.04-0.8-0.1-1.6-0.2-2.39l6.86-3.92c0.35,0.64,0.68,1.28,1.01,1.92L190.42,63.7z M188.06,43.51L183.71,46
			c-0.46-0.58-0.94-1.13-1.45-1.67l4.07-2.33C187.09,42.56,187.68,43.11,188.06,43.51z M178.86,40.14c1.42,0,2.84,0.04,4.25,0.15
			c0.62,0.2,1.2,0.47,1.73,0.76l-3.71,2.12c-1-0.97-2.05-1.87-3.18-2.7L178.86,40.14z M159.87,90.06
			c-13.76,0-24.91-11.15-24.91-24.91c0-13.76,11.15-24.91,24.91-24.91c13.75,0.02,24.89,11.16,24.91,24.91
			C184.78,78.91,173.63,90.06,159.87,90.06z M191.94,77.23l5.71-3.44c-2.2,1.85-4.71,3.24-4.71,3.24
			C192.57,77.14,192.25,77.19,191.94,77.23z M215.01,46.67c0,3.52-2.86,6.37-6.38,6.37s-6.37-2.86-6.37-6.38
			c0-3.52,2.86-6.37,6.38-6.37C212.16,40.3,215.01,43.15,215.01,46.67C215.01,46.67,215.01,46.67,215.01,46.67z M238.88,40.08
			l0.86,0.32c-0.09,0.06-0.17,0.13-0.25,0.2l-1.01-0.58C238.61,40.03,238.75,40.05,238.88,40.08z M235.51,40.12l2.65,1.51
			c-0.52,0.43-1.01,0.88-1.5,1.34l-3.46-1.98C233.9,40.62,234.67,40.31,235.51,40.12z M231.69,41.93l3.82,2.18
			c-0.51,0.54-0.99,1.09-1.46,1.67l-4.09-2.34C230.35,43.03,230.95,42.48,231.69,41.93z M226.93,47.81l4.11,2.35
			c-0.36,0.63-0.69,1.28-1,1.94l-4.3-2.46L226.93,47.81z M224.88,50.95l4.52,2.59c-0.29,0.69-0.55,1.4-0.78,2.12l-4.94-2.86
			L224.88,50.95z M222.02,55.33l0.8-1.22l5.35,3.1c-0.19,0.71-0.36,1.42-0.5,2.15l-5.98-3.42C221.8,55.73,221.91,55.53,222.02,55.33
			z M220.92,57.29L227.4,61c-0.11,0.78-0.19,1.57-0.23,2.38l-7.26-4.16C220.24,58.57,220.57,57.93,220.92,57.29z M219.2,60.62
			l7.91,4.53c0,0.87,0.05,1.72,0.12,2.57l-8.95-5.13C218.57,61.92,218.89,61.27,219.2,60.62z M217.21,65.05
			c0.14-0.34,0.29-0.68,0.44-1.02l9.8,5.61c0.15,0.99,0.35,1.96,0.59,2.91l-11.07-6.66C217.03,65.61,217.11,65.33,217.21,65.05z
			 M217.03,69.87c-0.21-0.74-0.3-1.5-0.28-2.28l11.93,7.17c0.31,0.93,0.65,1.84,1.04,2.73L217.03,69.87z M220.88,74.68
			c-1.04-0.56-1.9-1.32-2.57-2.21l12.73,7.65c0.15,0.26,0.28,0.52,0.43,0.78L220.88,74.68z M227.79,46.5l1.19-1.82l4.1,2.34
			c-0.43,0.58-0.84,1.19-1.23,1.8L227.79,46.5z M257.7,90.06c-13.76,0-24.91-11.15-24.91-24.91c0-13.76,11.15-24.91,24.91-24.91
			c13.75,0.02,24.89,11.16,24.91,24.91C282.61,78.91,271.46,90.06,257.7,90.06z"/>
		<path id="Path_1302_1_" class="st0" d="M185.29,65.15c0,14.04-11.38,25.42-25.42,25.42s-25.42-11.38-25.42-25.42
			c0-14.04,11.38-25.42,25.42-25.42c0,0,0,0,0,0C173.91,39.73,185.29,51.11,185.29,65.15C185.29,65.14,185.29,65.15,185.29,65.15"/>
		<path id="Path_1303_7_" class="st0" d="M185.29,65.15c0,14.04-11.38,25.42-25.42,25.42s-25.42-11.38-25.42-25.42
			c0-14.04,11.38-25.42,25.42-25.42c0,0,0,0,0,0C173.91,39.73,185.29,51.11,185.29,65.15C185.29,65.15,185.29,65.15,185.29,65.15"/>
		<path id="Path_1303_6_" class="st0" d="M283.12,65.15c0,14.04-11.38,25.42-25.42,25.42c-14.04,0-25.42-11.38-25.42-25.42
			c0-14.04,11.38-25.42,25.42-25.42c0,0,0,0,0,0C271.74,39.73,283.12,51.11,283.12,65.15C283.12,65.14,283.12,65.15,283.12,65.15"/>
		<path id="Path_1304_1_" class="st3" d="M140.63,56.4c0,0,0.1-0.37,0.3-1.01c0.31-0.88,0.69-1.74,1.15-2.56
			c0.3-0.55,0.64-1.08,1.01-1.59c0.41-0.58,0.85-1.13,1.33-1.64c0.51-0.56,1.05-1.09,1.63-1.58c0.6-0.51,1.22-0.98,1.88-1.41
			c0.66-0.42,1.35-0.8,2.06-1.14c0.68-0.33,1.39-0.61,2.12-0.83c0.68-0.21,1.36-0.38,2.06-0.51c0.61-0.11,1.23-0.19,1.85-0.25
			c1.28-0.14,2.58-0.1,3.85,0.12c0,0-1.52,0.26-3.67,0.87c-1.21,0.33-2.41,0.74-3.57,1.21c-0.63,0.25-1.26,0.57-1.89,0.89
			c-1.27,0.68-2.48,1.46-3.62,2.34c-0.56,0.44-1.11,0.88-1.61,1.35c-0.49,0.47-0.98,0.93-1.42,1.38s-0.83,0.91-1.19,1.33
			c-0.72,0.86-1.27,1.6-1.67,2.14C140.85,56.08,140.63,56.4,140.63,56.4"/>
		<path id="Path_1305_1_" class="st3" d="M238.48,56.57c0,0,0.1-0.37,0.31-1.01c0.12-0.39,0.27-0.76,0.44-1.13
			c0.2-0.49,0.44-0.97,0.71-1.42c0.3-0.55,0.64-1.08,1.01-1.59c0.41-0.57,0.85-1.12,1.33-1.64c0.51-0.56,1.06-1.08,1.64-1.57
			c0.6-0.5,1.23-0.97,1.88-1.4c0.66-0.41,1.35-0.79,2.05-1.13c0.68-0.33,1.38-0.61,2.1-0.85c0.67-0.22,1.35-0.4,2.05-0.53
			c0.33-0.06,0.65-0.13,0.96-0.18l0.91-0.09c0.53-0.06,1.06-0.08,1.59-0.06c0.41-0.01,0.81,0.01,1.21,0.07
			c0.67,0.08,1.05,0.14,1.05,0.14s-0.38,0.09-1.03,0.21c-0.33,0.05-0.72,0.14-1.15,0.25c-0.43,0.11-0.95,0.21-1.48,0.38
			c-0.53,0.17-1.11,0.32-1.7,0.54c-0.6,0.18-1.2,0.48-1.84,0.71c-0.62,0.29-1.26,0.58-1.89,0.92c-0.64,0.33-1.26,0.7-1.87,1.09
			c-0.61,0.39-1.2,0.8-1.76,1.25c-0.57,0.43-1.11,0.89-1.62,1.34c-0.49,0.48-0.99,0.91-1.42,1.38s-0.85,0.89-1.19,1.33
			c-0.35,0.43-0.68,0.82-0.96,1.18c-0.27,0.36-0.53,0.68-0.71,0.96C238.71,56.26,238.48,56.56,238.48,56.57"/>
		<path id="Path_1306_1_" class="st3" d="M203.45,45.04c0.1-0.36,0.24-0.71,0.43-1.03c0.19-0.34,0.42-0.65,0.68-0.93
			c0.31-0.32,0.65-0.61,1.02-0.87c0.71-0.45,1.51-0.72,2.34-0.8c0.27-0.03,0.54-0.03,0.81,0l0.3,0.04l-0.3,0.06
			c-0.19,0.02-0.46,0.1-0.77,0.18c-0.35,0.1-0.7,0.22-1.03,0.36c-0.38,0.16-0.74,0.36-1.09,0.59c-0.35,0.22-0.68,0.47-0.98,0.75
			c-0.27,0.24-0.52,0.51-0.76,0.79c-0.17,0.2-0.33,0.41-0.48,0.62L203.45,45.04"/>
		<g>
			<linearGradient id="SVGID_1_" gradientUnits="userSpaceOnUse" x1="154.5473" y1="67.1165" x2="154.5473" y2="58.1955">
				<stop  offset="0" style="stop-color:#BCBEC0"/>
				<stop  offset="0.1045" style="stop-color:#AEB0B2"/>
				<stop  offset="0.4027" style="stop-color:#8B8C8F"/>
				<stop  offset="0.646" style="stop-color:#757679"/>
				<stop  offset="0.8023" style="stop-color:#6D6E71"/>
			</linearGradient>
			<path class="st7" d="M156.46,61.73l-1.76-3.95c-0.06-0.14-0.26-0.14-0.32,0l-1.76,3.95h1.11v5.7c0,0.1,0.08,0.17,0.17,0.17h1.27
				c0.1,0,0.17-0.08,0.17-0.17v-5.7H156.46z"/>
			
				<linearGradient id="SVGID_00000091703273161798015320000014273562092915623823_" gradientUnits="userSpaceOnUse" x1="145.9253" y1="68.2422" x2="145.9253" y2="60.4778">
				<stop  offset="0" style="stop-color:#BCBEC0"/>
				<stop  offset="0.1045" style="stop-color:#AEB0B2"/>
				<stop  offset="0.4027" style="stop-color:#8B8C8F"/>
				<stop  offset="0.646" style="stop-color:#757679"/>
				<stop  offset="0.8023" style="stop-color:#6D6E71"/>
			</linearGradient>
			<path style="fill:url(#SVGID_00000091703273161798015320000014273562092915623823_);" d="M147.84,64.18l-1.76-3.97
				c-0.06-0.13-0.25-0.13-0.31,0l-1.76,3.97h1.11v4.25c0,0.09,0.07,0.17,0.17,0.17h1.28c0.09,0,0.17-0.07,0.17-0.17v-4.25H147.84z"
				/>
			
				<linearGradient id="SVGID_00000142895995998190653480000011318011955450183064_" gradientUnits="userSpaceOnUse" x1="163.4632" y1="66.1461" x2="163.4632" y2="55.254">
				<stop  offset="0" style="stop-color:#BCBEC0"/>
				<stop  offset="0.1045" style="stop-color:#AEB0B2"/>
				<stop  offset="0.4027" style="stop-color:#8B8C8F"/>
				<stop  offset="0.646" style="stop-color:#757679"/>
				<stop  offset="0.8023" style="stop-color:#6D6E71"/>
			</linearGradient>
			<path style="fill:url(#SVGID_00000142895995998190653480000011318011955450183064_);" d="M165.38,58.54l-1.75-3.93
				c-0.06-0.15-0.27-0.15-0.34,0l-1.75,3.93h1.11v8.19c0,0.1,0.08,0.18,0.18,0.18h1.25c0.1,0,0.18-0.08,0.18-0.18v-8.19H165.38z"/>
			
				<linearGradient id="SVGID_00000163780277130996452620000010795236292166842001_" gradientUnits="userSpaceOnUse" x1="172.3547" y1="65.7621" x2="172.3547" y2="52.7539">
				<stop  offset="0" style="stop-color:#BCBEC0"/>
				<stop  offset="0.1045" style="stop-color:#AEB0B2"/>
				<stop  offset="0.4027" style="stop-color:#8B8C8F"/>
				<stop  offset="0.646" style="stop-color:#757679"/>
				<stop  offset="0.8023" style="stop-color:#6D6E71"/>
			</linearGradient>
			<path style="fill:url(#SVGID_00000163780277130996452620000010795236292166842001_);" d="M172.51,52.43
				c-0.06-0.14-0.25-0.14-0.31,0l-1.76,3.96h1.11v9.77c0,0.09,0.08,0.17,0.17,0.17h1.28c0.09,0,0.17-0.08,0.17-0.17v-9.77h1.11
				L172.51,52.43z"/>
		</g>
		<g>
			<defs>
				<path id="SVGID_00000163765199949148019730000000955939812503608223_" d="M169.58,65.76c-6.14,0.4-12.08,0.87-17.7,1.36
					c-5.62,0.54-10.93,1.08-15.82,1.71l-1.31,0.17c1.85,12.21,12.4,21.57,25.13,21.57c14.04,0,25.42-11.38,25.42-25.42c0,0,0,0,0,0
					c0-0.06,0-0.13,0-0.19C179.95,65.17,174.69,65.41,169.58,65.76z"/>
			</defs>
			<clipPath id="SVGID_00000071560539399595260850000013453245533474322863_">
				<use xlink:href="#SVGID_00000163765199949148019730000000955939812503608223_"  style="overflow:visible;"/>
			</clipPath>
			
				<linearGradient id="SVGID_00000080904734612941248430000001830080041633271196_" gradientUnits="userSpaceOnUse" x1="160.0188" y1="91.7967" x2="160.0188" y2="63.2649">
				<stop  offset="0.2677" style="stop-color:#D1D3D4"/>
				<stop  offset="0.41" style="stop-color:#CBCDCE"/>
				<stop  offset="0.5945" style="stop-color:#BBBDBF"/>
				<stop  offset="0.8013" style="stop-color:#A0A2A5"/>
				<stop  offset="1" style="stop-color:#808285"/>
			</linearGradient>
			
				<rect x="131.29" y="63.26" style="clip-path:url(#SVGID_00000071560539399595260850000013453245533474322863_);fill:url(#SVGID_00000080904734612941248430000001830080041633271196_);" width="57.46" height="28.53"/>
		</g>
		<g>
			<defs>
				<path id="Path_1303_5_" d="M283.12,65.15c0,14.04-11.38,25.42-25.42,25.42c-14.04,0-25.42-11.38-25.42-25.42
					c0-14.04,11.38-25.42,25.42-25.42c0,0,0,0,0,0C271.74,39.73,283.12,51.11,283.12,65.15C283.12,65.15,283.12,65.15,283.12,65.15"
					/>
			</defs>
			<clipPath id="Path_1303_00000099635668674081198890000017310971181602245250_">
				<use xlink:href="#Path_1303_5_"  style="overflow:visible;"/>
			</clipPath>
			
				<linearGradient id="SVGID_00000171000871831451218110000008388820337982465723_" gradientUnits="userSpaceOnUse" x1="90.5865" y1="-56.9411" x2="90.5865" y2="-73.6918" gradientTransform="matrix(1.0583 0.0499 -0.0509 1.0804 158.632 127.3774)">
				<stop  offset="0" style="stop-color:#BCBEC0"/>
				<stop  offset="0.1045" style="stop-color:#AEB0B2"/>
				<stop  offset="0.4027" style="stop-color:#8B8C8F"/>
				<stop  offset="0.646" style="stop-color:#757679"/>
				<stop  offset="0.8023" style="stop-color:#6D6E71"/>
			</linearGradient>
			
				<path style="clip-path:url(#Path_1303_00000099635668674081198890000017310971181602245250_);fill:url(#SVGID_00000171000871831451218110000008388820337982465723_);" d="
				M230.85,65.45l5.57-4.81c0.56-0.48,1.38-0.48,1.94-0.01l3.42,2.9c0.53,0.45,1.3,0.47,1.86,0.06l7.94-5.94
				c0.56-0.42,1.34-0.39,1.87,0.07l5.94,5.14c0.54,0.47,1.35,0.48,1.91,0.04l13.4-10.74c0.62-0.5,1.52-0.42,2.04,0.17l7.91,8.87
				c0.26,0.29,0.39,0.67,0.38,1.06l-0.35,7.34c-0.04,0.83-0.75,1.46-1.57,1.42l-51.36-2.95c-0.85-0.05-1.48-0.79-1.4-1.64l0,0
				C230.38,66.05,230.56,65.7,230.85,65.45z"/>
		</g>
		<g>
			<defs>
				<path id="SVGID_00000155128066668458913000000014136512397313793441_" d="M247.99,65.75c6.14,0.4,12.08,0.87,17.7,1.36
					c5.62,0.54,10.93,1.08,15.82,1.71l1.31,0.17c-1.85,12.21-12.4,21.57-25.13,21.57c-14.04,0-25.42-11.38-25.42-25.42c0,0,0,0,0,0
					c0-0.06,0-0.13,0-0.19C237.63,65.16,242.89,65.4,247.99,65.75z"/>
			</defs>
			<clipPath id="SVGID_00000077307762784133220510000009026465683401761679_">
				<use xlink:href="#SVGID_00000155128066668458913000000014136512397313793441_"  style="overflow:visible;"/>
			</clipPath>
			
				<linearGradient id="SVGID_00000076578427247016439730000009535962397893002664_" gradientUnits="userSpaceOnUse" x1="-5622.6689" y1="91.7938" x2="-5622.6689" y2="63.262" gradientTransform="matrix(-1 0 0 1 -5365.1128 0)">
				<stop  offset="0.2677" style="stop-color:#D1D3D4"/>
				<stop  offset="0.41" style="stop-color:#CBCDCE"/>
				<stop  offset="0.5945" style="stop-color:#BBBDBF"/>
				<stop  offset="0.8013" style="stop-color:#A0A2A5"/>
				<stop  offset="1" style="stop-color:#808285"/>
			</linearGradient>
			
				<polygon style="clip-path:url(#SVGID_00000077307762784133220510000009026465683401761679_);fill:url(#SVGID_00000076578427247016439730000009535962397893002664_);" points="
				228.83,91.79 286.28,91.79 286.28,63.26 228.83,63.26 			"/>
		</g>
	</g>
	<circle class="st43" cx="159.97" cy="65.46" r="25.45"/>
	<circle class="st43" cx="257.55" cy="65.46" r="25.45"/>
</g>
</svg>
