<?xml version="1.0" encoding="utf-8"?>
<!-- Generator: Adobe Illustrator 26.0.3, SVG Export Plug-In . SVG Version: 6.00 Build 0)  -->
<svg version="1.1" id="Layer_1" xmlns="http://www.w3.org/2000/svg" xmlns:xlink="http://www.w3.org/1999/xlink" x="0px" y="0px"
	 viewBox="0 0 417.93 192.28" style="enable-background:new 0 0 417.93 192.28;" xml:space="preserve">
<style type="text/css">
	.st0{fill:#FFFFFF;}
	.st1{fill:#17336B;}
	.st2{fill:#C3E532;}
	.st3{fill:#CCCCCC;}
	.st4{fill:#999999;}
	.st5{fill:#1E3C72;}
	.st6{fill:#E6E6E6;}
	.st7{fill:url(#SVGID_1_);}
	.st8{fill:url(#SVGID_00000097481331858395916730000006352727509502295985_);}
	.st9{fill:url(#SVGID_00000036954780390959856540000014568100070846649013_);}
	.st10{fill:url(#SVGID_00000178909469272513608960000007614058104104175772_);}
	
		.st11{clip-path:url(#SVGID_00000103980733404858301380000010689201020977460877_);fill:url(#SVGID_00000028321694981395388830000001964380290851107004_);}
	
		.st12{clip-path:url(#Path_1303_00000036935751963098914410000010302222413572136855_);fill:url(#SVGID_00000149379761883625510510000006539571735230783897_);}
	
		.st13{clip-path:url(#SVGID_00000035494342392561467540000005010936268524033424_);fill:url(#SVGID_00000137823497011203037280000006827003157294000294_);}
	.st14{fill:url(#SVGID_00000092447912107614057910000006600728039772323502_);}
	.st15{fill:url(#SVGID_00000106107740651215143160000015829976622157314733_);}
	.st16{fill:url(#SVGID_00000034798579402552910590000000499137853666658488_);}
	.st17{fill:url(#SVGID_00000091001193632671661370000004308570498962851255_);}
	
		.st18{clip-path:url(#SVGID_00000023239755959740301220000007008774025025374626_);fill:url(#SVGID_00000145757176086017359980000004883604519472749457_);}
	
		.st19{clip-path:url(#Path_1303_00000069356712058018374450000000004138227763879068_);fill:url(#SVGID_00000075865463564124430690000003980394030649384620_);}
	
		.st20{clip-path:url(#SVGID_00000158029572247659630980000001783870292008542348_);fill:url(#SVGID_00000160880726369090319390000011281026439665435533_);}
	.st21{fill:url(#SVGID_00000035523321493954845050000014141307732557622677_);}
	.st22{fill:url(#SVGID_00000140004244218585311760000003363959863207583631_);}
	.st23{fill:url(#SVGID_00000067219560063477789410000017466050669511992451_);}
	.st24{fill:url(#SVGID_00000160906224097223502880000004656064712250673537_);}
	
		.st25{clip-path:url(#SVGID_00000064330673374634455520000008668921947390264758_);fill:url(#SVGID_00000150800404094398406800000007333733746669399213_);}
	
		.st26{clip-path:url(#Path_1303_00000000915047200483130990000015214099102944338825_);fill:url(#SVGID_00000034773980656076740360000017433247639514449821_);}
	
		.st27{clip-path:url(#SVGID_00000042007713951277814160000015714175015628908702_);fill:url(#SVGID_00000146489310606529433780000011055827157237764748_);}
	.st28{fill:url(#SVGID_00000130623733646022377770000017233880961265939852_);}
	.st29{fill:url(#SVGID_00000132775548522790732240000014018301312685825686_);}
	.st30{fill:url(#SVGID_00000035523423919429099400000007351005285397402761_);}
	.st31{fill:url(#SVGID_00000123410492320996110010000011878792667373044131_);}
	
		.st32{clip-path:url(#SVGID_00000149360565333036104470000011589686289905259404_);fill:url(#SVGID_00000182510155914464815200000015009123134566304906_);}
	
		.st33{clip-path:url(#Path_1303_00000145770964554524487680000002309884161610628513_);fill:url(#SVGID_00000042003181974092966640000013355435443106395038_);}
	
		.st34{clip-path:url(#SVGID_00000080194122601270402740000014464626678050299568_);fill:url(#SVGID_00000145042807172497368520000013036454850415985026_);}
	.st35{fill:none;stroke:#17336B;stroke-width:0.75;stroke-miterlimit:10;}
	.st36{fill:url(#SVGID_00000039854291592478827960000012827367544921105827_);}
	.st37{fill:url(#SVGID_00000023277682977769508860000017059100851508064649_);}
	.st38{fill:url(#SVGID_00000161614437913768279320000000322939434226931866_);}
	.st39{fill:url(#SVGID_00000055671503617330550220000006624356249430847362_);}
	
		.st40{clip-path:url(#SVGID_00000067931705430222329450000008716766711974869402_);fill:url(#SVGID_00000160885985110313704990000004128710224425118354_);}
	
		.st41{clip-path:url(#Path_1303_00000181797372914221473660000000040801805766315143_);fill:url(#SVGID_00000164509194449173747210000001545230729169287583_);}
	
		.st42{clip-path:url(#SVGID_00000067937554467441963840000009700507731729036690_);fill:url(#SVGID_00000051369082549419763400000017425009217201109380_);}
	.st43{fill:none;stroke:#17336B;stroke-width:0.8092;stroke-miterlimit:10;}
	.st44{fill:url(#SVGID_00000163067866011060010560000017222466858442205618_);}
	.st45{fill:url(#SVGID_00000056414662249299187170000010676511257619097479_);}
	.st46{fill:url(#SVGID_00000076595409980301563160000000779425446383938232_);}
	.st47{fill:url(#SVGID_00000157282090928643743410000008933716952092685748_);}
	
		.st48{clip-path:url(#SVGID_00000160167893204840952920000001480289723265333903_);fill:url(#SVGID_00000008147849668255965630000011111071049172591539_);}
	
		.st49{clip-path:url(#Path_1303_00000009560121099634121690000010152266403846121345_);fill:url(#SVGID_00000039127855892363763840000010740815388226866862_);}
	
		.st50{clip-path:url(#SVGID_00000048480689562924974280000012488214866374533807_);fill:url(#SVGID_00000060016670474526476580000013773308439959798417_);}
	.st51{fill:none;stroke:#17336B;stroke-width:0.4679;stroke-miterlimit:10;}
	.st52{fill:url(#SVGID_00000116933596336676216200000004665258996678885009_);}
	.st53{fill:url(#SVGID_00000039108595772958076400000012687712312267990443_);}
	.st54{fill:url(#SVGID_00000031889872732543923050000017041395513955437194_);}
	.st55{fill:url(#SVGID_00000003819562372846466180000017484310874655917729_);}
	
		.st56{clip-path:url(#SVGID_00000003823295682762271680000009519091490541074873_);fill:url(#SVGID_00000156549356774952348470000010192996529425904308_);}
	
		.st57{clip-path:url(#Path_1303_00000071561855220702554060000004489159079507672740_);fill:url(#SVGID_00000171689376607362788470000010038153533004535735_);}
	
		.st58{clip-path:url(#SVGID_00000161619780441999215580000004368167898038219681_);fill:url(#SVGID_00000139977525176988270210000014813982217530259117_);}
	.st59{fill:url(#SVGID_00000047751849073105316720000011778317644321753478_);}
	.st60{fill:url(#SVGID_00000023979506276901199630000015560346430626957452_);}
	.st61{fill:url(#SVGID_00000013879245433889996850000014295703505847307701_);}
	.st62{fill:url(#SVGID_00000005258979373894942150000013589112318834409625_);}
	
		.st63{clip-path:url(#SVGID_00000157297422477328345360000009663219551118041491_);fill:url(#SVGID_00000011750231836341949100000015861845034315843486_);}
	
		.st64{clip-path:url(#Path_1303_00000161628936226710208480000001769193259581775802_);fill:url(#SVGID_00000134967257229276305920000016532782556884208275_);}
	
		.st65{clip-path:url(#SVGID_00000075856060615382208990000018276102959423341452_);fill:url(#SVGID_00000078730705640280624440000008857755507439284657_);}
	.st66{fill:none;stroke:#17336B;stroke-width:0.5091;stroke-miterlimit:10;}
</style>
<g>
	<path class="st2" d="M378.75,83.52c-2.38-0.56-5.64-1.33-9.57-2.14c-4.62-1-10.36-2.14-17.06-3.4c-5.85-1.1-13.67-2.52-22.25-3.75
		c-7.15-1.09-15.31-2.19-26.48-3.55c-9.01-1.01-19.21-2.16-29.68-2.9c-12.64-0.97-22.46-1.54-31.84-1.86
		c-11.91-0.49-23.85-0.6-32.93-0.65c-12.39,0.08-23.16,0.31-32.92,0.72c-10.05,0.39-20.46,1.03-31.83,1.94
		c-10.2,0.75-19.86,1.83-29.68,2.97c-11.21,1.39-19.37,2.5-26.46,3.6c-8.65,1.26-16.43,2.7-22.25,3.81
		c-6.78,1.29-12.52,2.45-17.05,3.44c-3.91,0.81-7.15,1.58-9.51,2.15l-5.04,1.2l-0.19,0.03l0,0.01l-0.04,0.01l0.24,1.21l0.04-0.01
		l0,0.01l14.87-2.53c4.49-0.77,10.09-1.63,17.13-2.64l2.28-0.32c2.65-0.37,5.4-0.76,8.28-1.11l11.73-1.51
		c7.1-0.9,15.25-1.78,26.42-2.85c9.95-0.88,19.9-1.64,29.58-2.27c9.78-0.67,19.73-1.1,31.67-1.54c9.71-0.36,20.41-0.54,32.72-0.56
		c9.84,0.01,21.43,0.08,32.73,0.49c3.12,0.08,6.26,0.22,9.3,0.34c2.26,0.1,4.51,0.19,6.73,0.27c1.78,0.1,3.56,0.19,5.32,0.27
		c3.4,0.17,6.92,0.34,10.32,0.59c11.08,0.68,21.63,1.54,29.58,2.2c11.18,1.05,19.33,1.9,26.44,2.79c2.99,0.34,5.88,0.72,8.68,1.09
		l3.05,0.4c3.23,0.39,6.28,0.81,9.24,1.22l1.33,0.18c7.15,1,12.75,1.85,17.14,2.59l11.02,1.83l3.9,0.67l0.25-1.22L378.75,83.52z"/>
	<g>
		<path class="st1" d="M261.14,112.24h-10.83l-16.56,42.78l8.55,0c0.89,0.02,1.77-0.25,2.47-0.78c0.6-0.45,1.07-1.05,1.38-1.79
			l2.26-6.69h14.63l2.29,6.74c0.3,0.71,0.79,1.33,1.42,1.81c0.67,0.47,1.48,0.72,2.26,0.72c0.06,0,0.11,0,0.17,0h8.52L261.14,112.24
			z M255.5,124.92c0.08-0.23,0.15-0.47,0.23-0.72c0.07,0.23,0.14,0.45,0.22,0.67c0.32,0.98,0.63,1.85,0.91,2.55l3.49,10.32h-9.22
			l3.45-10.23C254.87,126.8,255.18,125.92,255.5,124.92z"/>
		<path class="st1" d="M173.42,132.76c0.48-0.25,0.95-0.54,1.4-0.84c0.89-0.61,1.69-1.36,2.35-2.22c0.61-0.8,1.07-1.68,1.37-2.64
			c0.29-0.94,0.44-1.91,0.43-2.89c0.02-1.69-0.29-3.34-0.92-4.92c-0.64-1.52-1.68-2.84-3.02-3.83c-1.56-1.12-3.29-1.92-5.16-2.36
			c-2.44-0.59-4.97-0.86-7.46-0.81l-15.94,0v42.78h17.23c0.12,0,0.23,0,0.35,0c2.2,0,4.38-0.33,6.49-0.99
			c1.88-0.58,3.6-1.52,5.12-2.78c1.36-1.14,2.46-2.6,3.19-4.22c0.74-1.65,1.1-3.41,1.08-5.18c0.1-2.28-0.66-4.5-2.17-6.28
			C176.52,134.33,175.04,133.37,173.42,132.76z M167.57,123.08c0.24,0.71,0.35,1.44,0.33,2.24c0.03,0.74-0.12,1.49-0.4,2.16
			c-0.23,0.51-0.61,0.94-1.07,1.23c-0.58,0.35-1.22,0.59-1.9,0.69c-0.9,0.15-1.82,0.23-2.74,0.22h-4.24v-8.7l4.87,0
			c0.88-0.02,1.77,0.07,2.64,0.24c0.59,0.11,1.15,0.36,1.62,0.7C167.09,122.18,167.39,122.6,167.57,123.08z M157.55,137.52h5.95
			c0.96-0.02,1.89,0.08,2.8,0.32c0.59,0.15,1.15,0.43,1.61,0.81c0.37,0.32,0.64,0.73,0.79,1.18c0.18,0.58,0.27,1.19,0.26,1.82
			c0,0.59-0.08,1.19-0.23,1.76c-0.14,0.53-0.41,1.02-0.76,1.41c-0.44,0.47-0.99,0.83-1.59,1.05c-0.91,0.32-1.87,0.47-2.83,0.44
			l-6.02,0V137.52z"/>
		<path class="st1" d="M222.15,112.26c-0.36,0.02-0.72,0.09-1.07,0.22c-0.35,0.13-0.67,0.35-0.95,0.62c-0.28,0.3-0.52,0.64-0.7,1.01
			l-10.59,20.84c-0.41,0.74-0.79,1.52-1.15,2.33c-0.11,0.25-0.22,0.5-0.33,0.76c-0.1-0.24-0.21-0.47-0.31-0.71
			c-0.36-0.79-0.73-1.56-1.11-2.27l-10.62-20.94c-0.18-0.37-0.42-0.71-0.72-1.03c-0.27-0.27-0.58-0.48-0.94-0.62
			c-0.34-0.13-0.7-0.2-1.05-0.21c-0.32-0.02-0.7-0.03-1.14-0.03h-8.06v42.78h9.95v-24.49c0-0.11,0-0.21,0-0.33l9.35,18.14
			c0.37,0.75,0.94,1.38,1.67,1.82c0.72,0.41,1.5,0.62,2.35,0.61h1.29c0.83,0.01,1.64-0.2,2.37-0.62c0.71-0.43,1.29-1.06,1.65-1.8
			l9.35-18.1c0,0.09,0,0.18,0,0.27v24.49h9.95v-42.78l-8.06-0.01C222.84,112.23,222.46,112.24,222.15,112.26z"/>
	</g>
	<g>
		<path id="Path_1265_6_" class="st3" d="M174.26,41.37l6.86,5.59l2.06,5.65l3.18,8.35v12.5l-0.2,7.15l7.49-2.11l6.56-4.68
			l2.56-4.03l0.2-3.94l-0.78-3.47l-0.83-8.62l-5.73-6.9l-7.54-5.84l-1.38-1.2l-6.21-1.02L174.26,41.37z"/>
		<path id="Path_1266_6_" class="st4" d="M184.21,40.09c0,0,14.35,15.46,16.21,27.33c0.47,2.97-8.62,7.19-11.44,10.21l6.67-0.85
			l4.77-2.19l2.62-6.24l-2.82-7.93l-2.71-7.99c-0.79-1.43-1.89-2.68-3.2-3.65c-1.55-0.76-4.33-4.67-4.33-4.67L184.21,40.09z"/>
		<path id="Path_1268_6_" class="st3" d="M233.58,82.68l-9.76-4.49l-5.85-4.81l-2.21-4.39l0.46-2.36l1.78-5.67l4.85-9.72l3.68-4.45
			l4.62-6.45l5.32-2.57l4.25,1.3l2.54,1.36c0,0-7.23,7.93-7.53,8.03c-1.73,2.47-3.3,5.05-4.7,7.73c-0.09,0.5-1.11,8.64-1.11,8.64
			l1.89,8.4l2.3,6.64L233.58,82.68z"/>
		<path id="Path_1269_6_" class="st4" d="M234.82,40.09c0,0-14.18,16.38-16.05,28.26c-0.47,2.97,11.27,9.5,14.1,12.53l-9.5-4.07
			l-4.77-2.19l-2.62-6.24l2.82-7.93l2.7-7.99c0.79-1.43,1.89-2.68,3.2-3.65c1.55-0.76,4.33-4.67,4.33-4.67L234.82,40.09z"/>
		<g id="Path_1277_6_">
			
				<rect x="176.26" y="40.41" transform="matrix(0.8681 -0.4964 0.4964 0.8681 3.3706 95.0317)" class="st5" width="8.51" height="1.53"/>
		</g>
		<path id="Path_1300_6_" class="st6" d="M217.02,47.46c0.27,4.32-3.01,8.04-7.33,8.31c-4.32,0.27-8.04-3.01-8.31-7.33
			c-0.27-4.32,3.01-8.04,7.33-8.31c0.16-0.01,0.33-0.02,0.49-0.02C213.39,39.99,216.89,43.28,217.02,47.46"/>
		<path class="st5" d="M257.11,35.04c-5.41,0-10.47,1.44-14.85,3.96l-2.73-1l-0.16-0.05c-0.73-0.16-1.47-0.24-2.21-0.24
			c-2.82,0-5.17,1.18-6.87,2.4c-2.11,0.93-4.3,1.64-6.57,2.07c0,0-3.88,0.86-9.99-2.83l0,0.01c-1.32-0.8-2.87-1.27-4.53-1.27
			c-1.88,0-3.62,0.6-5.05,1.61c-3.32,1.58-7.23,1.95-10.08,1.96c-2.1-0.29-4.12-0.97-5.97-2c-1.63-1.04-3.74-1.94-6.2-1.94
			c-0.74,0-1.49,0.08-2.21,0.25l-2.61,0.96c-0.63-0.24-1.95-0.75-3.42-1.32c-3.69-1.63-7.77-2.55-12.07-2.55
			c-16.5,0-29.87,13.37-29.87,29.87c0,16.5,13.37,29.87,29.87,29.87c6.86-0.01,13.18-2.33,18.22-6.23l-0.02,0.03l8.27-5.63l11.1-6.5
			l0.05-0.03c4.08-2.69,5.97-7.69,4.69-12.41l-0.03-0.09c-0.24-0.59-0.49-1.17-0.75-1.75c0.19-0.88,0.44-1.7,0.69-2.38
			c1.36,0.42,3.28,0.68,5.4,0.68c2.56,0,4.81-0.38,6.16-0.96c0.25,0.96,0.4,1.94,0.44,2.94c-0.21,0.5-0.43,0.99-0.64,1.49
			c-1.77,4.76,0.24,10.1,4.72,12.51l13.65,8l2.91,2.02c5.37,5.15,12.64,8.31,20.67,8.31c16.49-0.02,29.85-13.38,29.87-29.87
			C286.98,48.41,273.61,35.04,257.11,35.04z M201.65,68.6l-0.02,0.01c0,0.04-0.01,0.07-0.01,0.11c-0.09,0.4-0.2,0.79-0.34,1.15
			l-10.36,6.24c-0.41-0.46-0.58-1.1-0.63-1.7l11.48-6.91C201.76,67.89,201.72,68.26,201.65,68.6z M190.05,45.01l1.16,1.78
			l-4.23,2.42c-0.37-0.6-0.77-1.19-1.19-1.77L190.05,45.01z M192.05,48.07l1.16,1.78l-4.49,2.57c-0.3-0.65-0.62-1.28-0.96-1.9
			L192.05,48.07z M194.05,51.13l1.16,1.78l-5.16,2.95c-0.22-0.69-0.47-1.36-0.73-2.03L194.05,51.13z M190.49,57.37l5.56-3.18
			l0.74,1.13c0.13,0.22,0.25,0.45,0.38,0.68l-6.19,3.54C190.84,58.81,190.67,58.09,190.49,57.37z M191.05,69.66l10.04-5.75
			c0.12,0.28,0.25,0.56,0.36,0.84c0.1,0.35,0.17,0.69,0.23,1.02l-11.24,6.77C190.69,71.6,190.89,70.64,191.05,69.66z M200.48,62.51
			l-9.19,5.26c0.08-0.83,0.13-1.68,0.14-2.53l8.14-4.66C199.89,61.22,200.19,61.86,200.48,62.51z M191.41,63.49
			c-0.04-0.79-0.1-1.57-0.19-2.33l6.69-3.83c0.34,0.62,0.66,1.25,0.98,1.88L191.41,63.49z M189.12,43.78l-4.25,2.43
			c-0.45-0.56-0.92-1.11-1.41-1.64l3.98-2.27C188.16,42.85,188.74,43.4,189.12,43.78z M180.13,40.49c1.38,0,2.77,0.04,4.15,0.15
			c0.61,0.19,1.17,0.46,1.69,0.74l-3.63,2.07c-0.98-0.94-2.01-1.83-3.1-2.63L180.13,40.49z M161.59,89.23
			c-13.43,0-24.32-10.89-24.32-24.32c0-13.43,10.89-24.32,24.32-24.32c13.43,0.02,24.31,10.9,24.32,24.32
			C185.91,78.34,175.02,89.23,161.59,89.23z M192.9,76.7l5.58-3.36c-2.15,1.81-4.6,3.16-4.6,3.16
			C193.52,76.62,193.2,76.67,192.9,76.7z M215.43,46.87c0,3.44-2.79,6.22-6.23,6.22c-3.44,0-6.22-2.79-6.22-6.23
			c0-3.44,2.79-6.22,6.23-6.22C212.64,40.65,215.42,43.43,215.43,46.87C215.43,46.87,215.43,46.87,215.43,46.87z M238.74,40.43
			l0.84,0.31c-0.08,0.06-0.16,0.13-0.25,0.19l-0.98-0.56C238.47,40.39,238.61,40.4,238.74,40.43z M235.45,40.47l2.58,1.48
			c-0.5,0.42-0.99,0.86-1.46,1.31l-3.38-1.93C233.87,40.96,234.63,40.65,235.45,40.47z M231.72,42.24l3.73,2.13
			c-0.5,0.52-0.97,1.07-1.43,1.63l-4-2.29C230.41,43.31,230.99,42.77,231.72,42.24z M227.07,47.98l4.01,2.3
			c-0.35,0.62-0.67,1.25-0.98,1.89l-4.2-2.4L227.07,47.98z M225.07,51.05l4.42,2.53c-0.28,0.68-0.54,1.36-0.77,2.07l-4.83-2.8
			L225.07,51.05z M222.27,55.32l0.78-1.2l5.22,3.02c-0.19,0.69-0.35,1.39-0.49,2.1l-5.84-3.34
			C222.06,55.72,222.16,55.52,222.27,55.32z M221.2,57.24l6.33,3.62c-0.1,0.77-0.18,1.54-0.23,2.32l-7.09-4.06
			C220.53,58.49,220.86,57.86,221.2,57.24z M219.52,60.49l7.72,4.42c0,0.84,0.05,1.68,0.12,2.51l-8.74-5.01
			C218.91,61.76,219.21,61.13,219.52,60.49z M217.58,64.81c0.14-0.33,0.29-0.66,0.43-0.99l9.57,5.48c0.14,0.96,0.34,1.91,0.57,2.84
			l-10.81-6.5C217.4,65.36,217.48,65.08,217.58,64.81z M217.4,69.52c-0.2-0.72-0.29-1.47-0.28-2.23l11.65,7
			c0.3,0.91,0.64,1.8,1.02,2.67L217.4,69.52z M221.15,74.21c-1.01-0.55-1.85-1.29-2.5-2.16l12.43,7.47
			c0.14,0.25,0.27,0.51,0.42,0.76L221.15,74.21z M227.9,46.7l1.16-1.78l4,2.29c-0.42,0.57-0.82,1.16-1.2,1.76L227.9,46.7z
			 M257.11,89.23c-13.43,0-24.32-10.89-24.32-24.32c0-13.43,10.89-24.32,24.32-24.32c13.43,0.02,24.31,10.9,24.32,24.32
			C281.43,78.34,270.55,89.23,257.11,89.23z"/>
		<path id="Path_1302_6_" class="st0" d="M186.41,64.91c0,13.71-11.11,24.82-24.82,24.82c-13.71,0-24.82-11.11-24.82-24.82
			c0-13.71,11.11-24.82,24.82-24.82c0,0,0,0,0,0C175.3,40.09,186.41,51.2,186.41,64.91C186.41,64.91,186.41,64.91,186.41,64.91"/>
		<path id="Path_1303_18_" class="st0" d="M186.41,64.91c0,13.71-11.11,24.82-24.82,24.82c-13.71,0-24.82-11.11-24.82-24.82
			c0-13.71,11.11-24.82,24.82-24.82c0,0,0,0,0,0C175.3,40.09,186.41,51.2,186.41,64.91C186.41,64.91,186.41,64.91,186.41,64.91"/>
		<path id="Path_1303_17_" class="st0" d="M281.93,64.91c0,13.71-11.11,24.82-24.82,24.82c-13.71,0-24.82-11.11-24.82-24.82
			c0-13.71,11.11-24.82,24.82-24.82c0,0,0,0,0,0C270.82,40.09,281.93,51.2,281.93,64.91C281.93,64.91,281.93,64.91,281.93,64.91"/>
		<path id="Path_1304_6_" class="st3" d="M142.8,56.37c0,0,0.1-0.36,0.29-0.99c0.3-0.86,0.68-1.7,1.13-2.5
			c0.3-0.54,0.63-1.05,0.99-1.55c0.4-0.56,0.83-1.1,1.3-1.6c0.49-0.55,1.03-1.06,1.59-1.54c0.58-0.5,1.19-0.95,1.83-1.37
			c0.65-0.41,1.32-0.78,2.01-1.11c0.67-0.32,1.36-0.59,2.07-0.81c0.66-0.21,1.33-0.38,2.01-0.5c0.6-0.11,1.2-0.19,1.81-0.24
			c1.25-0.14,2.52-0.1,3.76,0.12c0,0-1.48,0.25-3.58,0.85c-1.18,0.33-2.35,0.72-3.49,1.18c-0.62,0.25-1.23,0.56-1.85,0.87
			c-1.24,0.66-2.43,1.43-3.54,2.29c-0.55,0.43-1.09,0.86-1.57,1.32c-0.48,0.46-0.95,0.91-1.38,1.35c-0.43,0.44-0.81,0.88-1.16,1.3
			c-0.7,0.84-1.24,1.56-1.63,2.09C143.01,56.06,142.79,56.37,142.8,56.37"/>
		<path id="Path_1305_6_" class="st3" d="M238.34,56.53c0,0,0.1-0.36,0.3-0.99c0.12-0.38,0.26-0.75,0.43-1.1
			c0.2-0.48,0.43-0.94,0.7-1.39c0.29-0.54,0.62-1.06,0.99-1.55c0.4-0.56,0.83-1.1,1.3-1.6c0.5-0.54,1.04-1.05,1.6-1.53
			c0.59-0.49,1.2-0.95,1.83-1.37c0.65-0.41,1.32-0.77,2-1.11c0.66-0.32,1.35-0.6,2.05-0.83c0.65-0.22,1.32-0.39,2-0.52
			c0.32-0.06,0.63-0.13,0.93-0.17l0.89-0.08c0.51-0.06,1.03-0.07,1.55-0.05c0.4-0.01,0.79,0.01,1.19,0.07
			c0.65,0.07,1.02,0.13,1.02,0.13s-0.37,0.08-1.01,0.21c-0.32,0.05-0.7,0.14-1.13,0.25c-0.42,0.1-0.92,0.21-1.44,0.37
			c-0.52,0.16-1.08,0.32-1.66,0.52c-0.59,0.18-1.18,0.46-1.8,0.69c-0.6,0.28-1.23,0.56-1.84,0.9c-0.63,0.32-1.23,0.68-1.82,1.07
			c-0.6,0.38-1.17,0.78-1.72,1.22c-0.55,0.42-1.08,0.87-1.58,1.31c-0.48,0.46-0.97,0.89-1.38,1.35s-0.83,0.87-1.17,1.3
			c-0.34,0.42-0.67,0.8-0.93,1.15s-0.52,0.66-0.7,0.93C238.57,56.23,238.34,56.53,238.34,56.53"/>
		<path id="Path_1306_6_" class="st3" d="M204.14,45.27c0.09-0.35,0.24-0.69,0.42-1.01c0.19-0.33,0.41-0.63,0.67-0.91
			c0.3-0.31,0.64-0.6,0.99-0.85c0.69-0.44,1.47-0.71,2.29-0.78c0.26-0.03,0.53-0.03,0.79,0l0.3,0.04l-0.29,0.06
			c-0.19,0.02-0.45,0.1-0.75,0.18c-0.34,0.1-0.68,0.21-1.01,0.35c-0.37,0.16-0.73,0.35-1.06,0.57c-0.34,0.21-0.67,0.46-0.96,0.73
			c-0.26,0.24-0.51,0.49-0.74,0.77c-0.17,0.19-0.32,0.4-0.47,0.61L204.14,45.27"/>
		<g>
			<linearGradient id="SVGID_1_" gradientUnits="userSpaceOnUse" x1="156.3872" y1="66.8329" x2="156.3872" y2="58.1219">
				<stop  offset="0" style="stop-color:#BCBEC0"/>
				<stop  offset="0.1045" style="stop-color:#AEB0B2"/>
				<stop  offset="0.4027" style="stop-color:#8B8C8F"/>
				<stop  offset="0.646" style="stop-color:#757679"/>
				<stop  offset="0.8023" style="stop-color:#6D6E71"/>
			</linearGradient>
			<path class="st7" d="M158.26,61.57l-1.72-3.86c-0.06-0.13-0.25-0.13-0.31,0l-1.72,3.86h1.08v5.57c0,0.09,0.08,0.17,0.17,0.17
				h1.24c0.09,0,0.17-0.08,0.17-0.17v-5.57H158.26z"/>
			
				<linearGradient id="SVGID_00000118387303274098692610000004489632682078041531_" gradientUnits="userSpaceOnUse" x1="147.9681" y1="67.9321" x2="147.9681" y2="60.3505">
				<stop  offset="0" style="stop-color:#BCBEC0"/>
				<stop  offset="0.1045" style="stop-color:#AEB0B2"/>
				<stop  offset="0.4027" style="stop-color:#8B8C8F"/>
				<stop  offset="0.646" style="stop-color:#757679"/>
				<stop  offset="0.8023" style="stop-color:#6D6E71"/>
			</linearGradient>
			<path style="fill:url(#SVGID_00000118387303274098692610000004489632682078041531_);" d="M149.84,63.96l-1.72-3.87
				c-0.06-0.13-0.24-0.13-0.3,0l-1.72,3.87h1.08v4.15c0,0.09,0.07,0.16,0.16,0.16h1.25c0.09,0,0.16-0.07,0.16-0.16v-4.15H149.84z"/>
			
				<linearGradient id="SVGID_00000086659266785354013360000016012817559134016445_" gradientUnits="userSpaceOnUse" x1="165.0932" y1="65.8854" x2="165.0932" y2="55.2496">
				<stop  offset="0" style="stop-color:#BCBEC0"/>
				<stop  offset="0.1045" style="stop-color:#AEB0B2"/>
				<stop  offset="0.4027" style="stop-color:#8B8C8F"/>
				<stop  offset="0.646" style="stop-color:#757679"/>
				<stop  offset="0.8023" style="stop-color:#6D6E71"/>
			</linearGradient>
			<path style="fill:url(#SVGID_00000086659266785354013360000016012817559134016445_);" d="M166.96,58.46l-1.71-3.84
				c-0.06-0.14-0.26-0.14-0.33,0l-1.71,3.84h1.08v8c0,0.1,0.08,0.18,0.18,0.18h1.22c0.1,0,0.18-0.08,0.18-0.18v-8H166.96z"/>
			
				<linearGradient id="SVGID_00000010293940536141073540000012652301303173211547_" gradientUnits="userSpaceOnUse" x1="173.7754" y1="65.5104" x2="173.7754" y2="52.8083">
				<stop  offset="0" style="stop-color:#BCBEC0"/>
				<stop  offset="0.1045" style="stop-color:#AEB0B2"/>
				<stop  offset="0.4027" style="stop-color:#8B8C8F"/>
				<stop  offset="0.646" style="stop-color:#757679"/>
				<stop  offset="0.8023" style="stop-color:#6D6E71"/>
			</linearGradient>
			<path style="fill:url(#SVGID_00000010293940536141073540000012652301303173211547_);" d="M173.93,52.49
				c-0.06-0.13-0.25-0.13-0.31,0l-1.72,3.87h1.08v9.54c0,0.09,0.07,0.17,0.17,0.17h1.25c0.09,0,0.17-0.07,0.17-0.17v-9.54h1.08
				L173.93,52.49z"/>
		</g>
		<g>
			<defs>
				<path id="SVGID_00000112625039028540266280000017770938765020570548_" d="M171.07,65.51c-6,0.39-11.79,0.85-17.28,1.33
					c-5.49,0.52-10.67,1.06-15.45,1.67l-1.28,0.16c1.81,11.93,12.1,21.06,24.54,21.06c13.71,0,24.82-11.11,24.82-24.82c0,0,0,0,0,0
					c0-0.06,0-0.12,0-0.18C181.19,64.93,176.05,65.16,171.07,65.51z"/>
			</defs>
			<clipPath id="SVGID_00000038377402823175415090000006074364153609511870_">
				<use xlink:href="#SVGID_00000112625039028540266280000017770938765020570548_"  style="overflow:visible;"/>
			</clipPath>
			
				<linearGradient id="SVGID_00000021102962808903506660000016658334732127433349_" gradientUnits="userSpaceOnUse" x1="161.7298" y1="90.9323" x2="161.7298" y2="63.072">
				<stop  offset="0.2677" style="stop-color:#D1D3D4"/>
				<stop  offset="0.41" style="stop-color:#CBCDCE"/>
				<stop  offset="0.5945" style="stop-color:#BBBDBF"/>
				<stop  offset="0.8013" style="stop-color:#A0A2A5"/>
				<stop  offset="1" style="stop-color:#808285"/>
			</linearGradient>
			
				<rect x="133.68" y="63.07" style="clip-path:url(#SVGID_00000038377402823175415090000006074364153609511870_);fill:url(#SVGID_00000021102962808903506660000016658334732127433349_);" width="56.1" height="27.86"/>
		</g>
		<g>
			<defs>
				<path id="Path_1303_16_" d="M281.93,64.91c0,13.71-11.11,24.82-24.82,24.82c-13.71,0-24.82-11.11-24.82-24.82
					c0-13.71,11.11-24.82,24.82-24.82c0,0,0,0,0,0C270.82,40.09,281.93,51.2,281.93,64.91C281.93,64.91,281.93,64.91,281.93,64.91"
					/>
			</defs>
			<clipPath id="Path_1303_00000109716043597004215240000016088450290953539762_">
				<use xlink:href="#Path_1303_16_"  style="overflow:visible;"/>
			</clipPath>
			
				<linearGradient id="SVGID_00000000909020805207802270000006775046396691720342_" gradientUnits="userSpaceOnUse" x1="140.8049" y1="-18.5565" x2="140.8049" y2="-34.9129" gradientTransform="matrix(1.0583 0.0499 -0.0509 1.0804 106.8626 83.0393)">
				<stop  offset="0" style="stop-color:#BCBEC0"/>
				<stop  offset="0.1045" style="stop-color:#AEB0B2"/>
				<stop  offset="0.4027" style="stop-color:#8B8C8F"/>
				<stop  offset="0.646" style="stop-color:#757679"/>
				<stop  offset="0.8023" style="stop-color:#6D6E71"/>
			</linearGradient>
			
				<path style="clip-path:url(#Path_1303_00000109716043597004215240000016088450290953539762_);fill:url(#SVGID_00000000909020805207802270000006775046396691720342_);" d="
				M230.9,65.21l5.44-4.7c0.54-0.47,1.35-0.47,1.89-0.01l3.34,2.84c0.52,0.44,1.27,0.46,1.81,0.06l7.76-5.8
				c0.55-0.41,1.31-0.38,1.82,0.06l5.8,5.02c0.53,0.46,1.31,0.47,1.86,0.03l13.08-10.49c0.6-0.48,1.48-0.41,2,0.17l7.72,8.66
				c0.25,0.28,0.38,0.66,0.37,1.04l-0.34,7.16c-0.04,0.81-0.73,1.43-1.54,1.38l-50.15-2.88c-0.83-0.05-1.45-0.78-1.36-1.6l0,0
				C230.44,65.79,230.62,65.45,230.9,65.21z"/>
		</g>
		<g>
			<defs>
				<path id="SVGID_00000139285651188359124500000005602801705702291079_" d="M247.64,65.5c6,0.39,11.79,0.85,17.28,1.33
					c5.49,0.52,10.67,1.06,15.45,1.67l1.28,0.16c-1.81,11.93-12.1,21.06-24.54,21.06c-13.71,0-24.82-11.11-24.82-24.82c0,0,0,0,0,0
					c0-0.06,0-0.12,0-0.18C237.51,64.92,242.65,65.16,247.64,65.5z"/>
			</defs>
			<clipPath id="SVGID_00000130629345250374696640000007669873667563838618_">
				<use xlink:href="#SVGID_00000139285651188359124500000005602801705702291079_"  style="overflow:visible;"/>
			</clipPath>
			
				<linearGradient id="SVGID_00000047042796788229519430000016674459700541022351_" gradientUnits="userSpaceOnUse" x1="-3844.6987" y1="90.9295" x2="-3844.6987" y2="63.0692" gradientTransform="matrix(-1 0 0 1 -3587.7271 0)">
				<stop  offset="0.2677" style="stop-color:#D1D3D4"/>
				<stop  offset="0.41" style="stop-color:#CBCDCE"/>
				<stop  offset="0.5945" style="stop-color:#BBBDBF"/>
				<stop  offset="0.8013" style="stop-color:#A0A2A5"/>
				<stop  offset="1" style="stop-color:#808285"/>
			</linearGradient>
			
				<polygon style="clip-path:url(#SVGID_00000130629345250374696640000007669873667563838618_);fill:url(#SVGID_00000047042796788229519430000016674459700541022351_);" points="
				228.92,90.93 285.02,90.93 285.02,63.07 228.92,63.07 			"/>
		</g>
	</g>
</g>
</svg>
